<svg width="105" height="40" viewBox="0 0 105 40" fill="none" xmlns="http://www.w3.org/2000/svg">
<path fill-rule="evenodd" clip-rule="evenodd" d="M14.6223 4.48528C17.4941 1.6134 21.3892 0 25.4507 0C30.8792 0 35.6479 2.82453 38.3675 7.08409L32.4059 13.0456C31.4513 10.1166 28.6983 8 25.4507 8C23.5109 8 21.6507 8.77055 20.2791 10.1421L10.9065 19.5147C9.53495 20.8863 8.7644 22.7465 8.7644 24.6863C8.7644 28.7256 12.0389 32 16.0781 32C18.0179 32 19.8781 31.2295 21.2497 29.8579L46.6223 4.48528C49.4941 1.6134 53.3892 0 57.4507 0C62.8791 0 67.6477 2.82445 70.3673 7.08395L64.4059 13.0454C63.4513 10.1165 60.6981 8 57.4507 8C55.5109 8 53.6507 8.77055 52.2791 10.1421L33.3896 29.0316L26.9065 35.5147C24.0347 38.3865 20.1396 40 16.0781 40C7.62059 40 0.764404 33.1439 0.764404 24.6863C0.764404 20.6248 2.3778 16.7297 5.24968 13.8579L14.6223 4.48528ZM48.0781 32C50.0179 32 51.8781 31.2295 53.2497 29.8579L78.6223 4.48528C81.4941 1.6134 85.3892 0 89.4507 0C97.9083 0 104.764 6.85619 104.764 15.3137C104.764 19.3752 103.151 23.2703 100.279 26.1421L90.9065 35.5147C88.0347 38.3865 84.1396 40 80.0781 40C74.6499 40 69.8813 37.1757 67.1617 32.9164L73.1231 26.9549C74.0777 29.8836 76.8308 32 80.0781 32C82.0179 32 83.8781 31.2295 85.2497 29.8579L94.6223 20.4853C95.9939 19.1137 96.7644 17.2535 96.7644 15.3137C96.7644 11.2745 93.49 8 89.4507 8C87.5109 8 85.6507 8.77055 84.2791 10.1421L58.9065 35.5147C56.0347 38.3865 52.1396 40 48.0781 40C42.6501 40 37.8817 37.1759 35.162 32.9169L41.1233 26.9556C42.0781 29.884 44.8311 32 48.0781 32Z" fill="#FBF7EA"/>
</svg>
