<svg width="204" height="40" viewBox="0 0 204 40" fill="none" xmlns="http://www.w3.org/2000/svg">
<path fill-rule="evenodd" clip-rule="evenodd" d="M11.1051 20.4203C10.8342 21.1798 10.3989 21.8701 9.83033 22.4419H9.83331C9.17921 23.0986 8.36995 23.5795 7.48049 23.8402C6.59101 24.1008 5.65015 24.1327 4.74508 23.9331C3.83999 23.7333 2.99997 23.3083 2.30286 22.6974C1.60575 22.0865 1.0741 21.3097 0.757188 20.4386C0.440277 19.5677 0.34834 18.6308 0.489898 17.7147C0.63147 16.7988 1.00195 15.9333 1.56702 15.1987C2.1321 14.464 2.87349 13.8838 3.72248 13.5119C4.57146 13.1401 5.5006 12.9884 6.42376 13.0712L6.39676 13.0442C7.34155 13.124 8.29236 12.9965 9.18284 12.6709C10.0733 12.3453 10.882 11.8292 11.5525 11.1588C12.2229 10.4883 12.7389 9.67965 13.0645 8.78917C13.3902 7.89869 13.5177 6.94787 13.4379 6.00308L13.4649 6.03008C13.359 4.90022 13.6043 3.76521 14.1672 2.77984C14.73 1.79447 15.5831 1.0067 16.6102 0.523961C17.6371 0.0412216 18.7881 -0.113012 19.9059 0.0823374C21.0237 0.277671 22.0542 0.813062 22.8566 1.61549C23.659 2.41791 24.1945 3.44831 24.3898 4.56618C24.5851 5.68405 24.4309 6.83495 23.9482 7.86196C23.4653 8.88895 22.6776 9.74207 21.6923 10.3049C20.7069 10.8678 19.5718 11.113 18.442 11.0072L18.4705 11.0342C17.5255 10.954 16.5743 11.081 15.6834 11.4065C14.7926 11.7319 13.9836 12.2479 13.3128 12.9184C12.642 13.5889 12.1256 14.3977 11.7998 15.2884C11.474 16.1791 11.3465 17.1303 11.4263 18.0753L11.3979 18.0483C11.476 18.8508 11.3761 19.6608 11.1051 20.4203ZM19.8835 25.4525L19.855 25.4255C20.658 25.5063 21.4689 25.4078 22.2293 25.1369C22.9895 24.866 23.6801 24.4296 24.251 23.8591C24.8218 23.2887 25.2589 22.5984 25.5302 21.8383C25.8017 21.0782 25.9009 20.2675 25.8206 19.4643L25.8491 19.4913C25.7693 18.5465 25.8968 17.5958 26.2224 16.7052C26.548 15.8148 27.0642 15.0061 27.7345 14.3356C28.405 13.6652 29.2137 13.1491 30.1041 12.8236C30.9947 12.4978 31.9454 12.3704 32.8903 12.4502L32.8618 12.4232C33.9921 12.5294 35.1274 12.2842 36.1133 11.7213C37.0992 11.1584 37.8873 10.3051 38.3703 9.27779C38.8534 8.25048 39.0077 7.09916 38.8124 5.98088C38.6171 4.86259 38.0816 3.8318 37.2788 3.02907C36.4761 2.22636 35.4453 1.69079 34.327 1.49546C33.2087 1.30011 32.0575 1.45448 31.0301 1.93751C30.0027 2.42054 29.1495 3.20873 28.5866 4.19456C28.0236 5.18038 27.7785 6.31586 27.8847 7.4461L27.8577 7.4176C27.9376 8.36246 27.8104 9.31339 27.4849 10.204C27.1594 11.0946 26.6433 11.9034 25.9729 12.574C25.3024 13.2443 24.4936 13.7605 23.603 14.086C22.7123 14.4115 21.7614 14.5387 20.8165 14.4587L20.8435 14.4872C20.0406 14.4064 19.2295 14.5049 18.4693 14.7759C17.7091 15.0466 17.0185 15.4831 16.4476 16.0536C15.8766 16.624 15.4397 17.3144 15.1682 18.0744C14.8968 18.8345 14.7977 19.6452 14.8779 20.4484L14.8509 20.4214C14.9304 21.3661 14.8028 22.3168 14.4771 23.2072C14.1513 24.0975 13.6353 24.9062 12.9649 25.5765C12.2945 26.2469 11.4859 26.7629 10.5956 27.0887C9.70522 27.4144 8.75452 27.542 7.80979 27.4625L7.83679 27.4895C6.70655 27.3833 5.57107 27.6284 4.58523 28.1914C3.59941 28.7543 2.81122 29.6075 2.3282 30.6349C1.84516 31.6623 1.69078 32.8136 1.88613 33.9318C2.08147 35.0501 2.61704 36.0809 3.41976 36.8836C4.22248 37.6864 5.25327 38.2219 6.37156 38.4172C7.48985 38.6125 8.64116 38.4582 9.66849 37.9752C10.6958 37.4922 11.5491 36.704 12.112 35.7182C12.675 34.7323 12.9201 33.5969 12.8139 32.4666L12.8424 32.4936C12.7626 31.5487 12.8901 30.598 13.2157 29.7075C13.5413 28.817 14.0574 28.0084 14.7278 27.3379C15.3983 26.6675 16.207 26.1513 17.0974 25.8258C17.9879 25.5002 18.9387 25.3727 19.8835 25.4525ZM30.9492 17.5548C30.3807 18.1268 29.9454 18.8171 29.6742 19.5764C29.403 20.3359 29.3027 21.1457 29.3802 21.9484L29.3532 21.9214C29.433 22.8663 29.3055 23.817 28.9799 24.7076C28.6542 25.598 28.1382 26.4066 27.4678 27.0771C26.7973 27.7475 25.9886 28.2637 25.0981 28.5892C24.2077 28.9148 23.2568 29.0423 22.3121 28.9625L22.3391 28.9895C21.209 28.8844 20.0739 29.1302 19.0885 29.6938C18.1033 30.2574 17.3158 31.111 16.8335 32.1385C16.3513 33.1661 16.1975 34.3172 16.3934 35.4353C16.5895 36.5533 17.1254 37.5837 17.9284 38.3859C18.7314 39.1881 19.7622 39.7231 20.8803 39.918C21.9986 40.113 23.1495 39.9582 24.1766 39.475C25.2037 38.9917 26.0566 38.2036 26.6193 37.2178C27.1819 36.232 27.4269 35.0968 27.3207 33.9666L27.3492 33.9936C27.2694 33.0489 27.3967 32.098 27.7224 31.2075C28.048 30.3171 28.5642 29.5084 29.2346 28.8379C29.9051 28.1675 30.7137 27.6514 31.6042 27.3258C32.4947 27.0002 33.4454 26.8727 34.3903 26.9525L34.3618 26.9255C35.2849 27.0084 36.2142 26.8571 37.0634 26.4854C37.9124 26.1137 38.654 25.5336 39.2192 24.799C39.7844 24.0645 40.1552 23.199 40.2968 22.2831C40.4386 21.367 40.3468 20.4301 40.03 19.5588C39.7132 18.6878 39.1816 17.9108 38.4845 17.2998C37.7874 16.6888 36.9474 16.2637 36.0423 16.0639C35.1372 15.8641 34.1962 15.8959 33.3067 16.1565C32.4172 16.4172 31.6079 16.8981 30.9538 17.5548H30.9492ZM56.2968 7.48061H60.7518V29.1605H56.2968V7.48061ZM64.5861 17.3556C63.7251 18.654 63.2687 20.179 63.2749 21.7369C63.2672 22.7712 63.4659 23.7966 63.8592 24.7531C64.2523 25.7097 64.8322 26.5784 65.5651 27.3083C66.2979 28.0381 67.1688 28.6145 68.127 29.0039C69.0853 29.3933 70.1114 29.5879 71.1456 29.576C72.7036 29.576 74.2265 29.1136 75.5216 28.2473C76.8166 27.3812 77.8253 26.15 78.4201 24.7101C79.0149 23.2701 79.1689 21.6859 78.8626 20.1583C78.5563 18.6306 77.8036 17.2283 76.6997 16.1289C75.5958 15.0294 74.1905 14.2823 72.6616 13.9822C71.1328 13.682 69.5494 13.8424 68.1117 14.443C66.6741 15.0435 65.4471 16.0572 64.5861 17.3556ZM73.9398 19.8647C74.3264 20.4142 74.5425 21.0653 74.5611 21.7369C74.5862 22.1965 74.5157 22.6563 74.3541 23.0872C74.1927 23.5182 73.9436 23.911 73.6227 24.241C73.3018 24.5709 72.916 24.8307 72.4897 25.0041C72.0633 25.1775 71.6056 25.2608 71.1456 25.2485C70.4738 25.2485 69.8168 25.0505 69.2569 24.6792C68.6971 24.3079 68.259 23.7799 67.9976 23.161C67.7361 22.5421 67.6631 21.8599 67.7873 21.1997C67.9113 20.5394 68.2275 19.9304 68.6959 19.4489C69.1643 18.9672 69.7643 18.6345 70.4209 18.492C71.0774 18.3495 71.7613 18.4038 72.3873 18.648C73.0131 18.8921 73.5531 19.3154 73.9398 19.8647ZM96.7721 14.3117V28.412C96.7721 33.4011 92.881 35.5102 88.9314 35.5102C87.5409 35.6143 86.1484 35.3333 84.9068 34.6983C83.6654 34.0632 82.6227 33.0986 81.8933 31.9101L85.6943 29.7125C86.0009 30.3321 86.4895 30.8431 87.0945 31.1775C87.6996 31.5117 88.3923 31.6533 89.0799 31.5831C89.5194 31.644 89.967 31.6053 90.3896 31.4698C90.812 31.3344 91.1987 31.1056 91.5209 30.8007C91.8431 30.4956 92.0926 30.1221 92.251 29.7075C92.4092 29.293 92.4722 28.8482 92.4355 28.406V27.0485C91.9138 27.6868 91.2499 28.1939 90.4967 28.5292C89.7435 28.8644 88.9224 29.0185 88.0989 28.979C86.1395 28.9172 84.2812 28.0955 82.917 26.6876C81.5529 25.2798 80.7901 23.3964 80.7901 21.4361C80.7901 19.4759 81.5529 17.5925 82.917 16.1847C84.2812 14.7768 86.1395 13.955 88.0989 13.8932C88.9224 13.8538 89.7435 14.0078 90.4967 14.3431C91.2499 14.6783 91.9138 15.1855 92.4355 15.8238V14.3087L96.7721 14.3117ZM92.437 21.4384C92.467 20.7205 92.2813 20.0099 91.904 19.3983C91.5268 18.7866 90.975 18.302 90.32 18.0066C89.6649 17.7111 88.9365 17.6186 88.2283 17.7407C87.5202 17.8628 86.8648 18.194 86.3464 18.6918C85.8281 19.1895 85.4707 19.831 85.3199 20.5336C85.1693 21.2362 85.2323 21.9679 85.5011 22.6344C85.7698 23.3008 86.2318 23.8717 86.8276 24.2734C87.4234 24.6751 88.1259 24.8894 88.8444 24.8885C89.3126 24.9212 89.7822 24.8554 90.2234 24.6955C90.6645 24.5356 91.0673 24.285 91.4057 23.9601C91.7441 23.635 92.0108 23.2428 92.1884 22.8084C92.366 22.3741 92.4508 21.9074 92.437 21.4384ZM100.606 17.3556C99.7451 18.654 99.289 20.179 99.2951 21.7369C99.2875 22.7712 99.4861 23.7966 99.8794 24.7531C100.273 25.7097 100.852 26.5784 101.585 27.3083C102.318 28.0381 103.189 28.6145 104.147 29.0039C105.105 29.3933 106.132 29.5879 107.166 29.576C108.724 29.576 110.247 29.1136 111.542 28.2473C112.837 27.3812 113.846 26.15 114.44 24.7101C115.035 23.2701 115.189 21.6859 114.883 20.1583C114.576 18.6306 113.824 17.2283 112.72 16.1289C111.616 15.0294 110.211 14.2823 108.682 13.9822C107.153 13.682 105.57 13.8424 104.132 14.443C102.694 15.0435 101.467 16.0572 100.606 17.3556ZM109.96 19.8647C110.347 20.4142 110.563 21.0653 110.581 21.7369C110.606 22.1965 110.536 22.6563 110.374 23.0872C110.213 23.5182 109.964 23.911 109.643 24.241C109.322 24.5709 108.936 24.8307 108.51 25.0041C108.083 25.1775 107.626 25.2608 107.166 25.2485C106.494 25.2485 105.837 25.0505 105.277 24.6792C104.717 24.3079 104.279 23.7799 104.018 23.161C103.756 22.5421 103.683 21.8599 103.807 21.1997C103.932 20.5394 104.248 19.9304 104.716 19.4489C105.185 18.9672 105.785 18.6345 106.441 18.492C107.098 18.3495 107.782 18.4038 108.407 18.648C109.033 18.8921 109.573 19.3154 109.96 19.8647ZM117.114 10.3322C117.114 9.80348 117.271 9.28667 117.564 8.8471C117.858 8.40752 118.276 8.0649 118.764 7.86259C119.253 7.66026 119.79 7.60733 120.309 7.71047C120.827 7.81361 121.303 8.0682 121.677 8.44203C122.051 8.81586 122.306 9.29215 122.409 9.81068C122.512 10.3292 122.459 10.8667 122.257 11.3551C122.054 11.8435 121.712 12.261 121.272 12.5548C120.833 12.8485 120.316 13.0052 119.787 13.0052C119.08 12.9982 118.404 12.7144 117.905 12.2145C117.405 11.7147 117.121 11.0389 117.114 10.3322ZM117.564 14.3117H122.021V29.162H117.558L117.564 14.3117ZM140.836 24.6262C141.165 23.7003 141.308 22.7184 141.257 21.7369C141.309 20.7553 141.166 19.7731 140.837 18.8469C140.508 17.9207 139.999 17.0686 139.339 16.3399C138.679 15.6112 137.882 15.0202 136.993 14.6008C136.104 14.1814 135.141 13.942 134.159 13.8962C133.333 13.8512 132.508 13.9903 131.743 14.3035C130.978 14.6165 130.292 15.096 129.735 15.7068V14.3117H125.28V35.1007H129.735V27.764C130.292 28.3753 130.978 28.855 131.743 29.1685C132.508 29.4818 133.333 29.621 134.159 29.576C135.141 29.5301 136.103 29.2906 136.992 28.8713C137.881 28.4519 138.678 27.8609 139.338 27.1325C139.998 26.4039 140.507 25.5522 140.836 24.6262ZM136.164 19.798C136.562 20.3675 136.784 21.0419 136.802 21.7369C136.835 22.2134 136.767 22.6918 136.603 23.1403C136.438 23.5888 136.181 23.9974 135.847 24.3396C135.514 24.6816 135.111 24.9494 134.667 25.125C134.223 25.3008 133.747 25.3808 133.269 25.3595C132.574 25.3596 131.894 25.1546 131.315 24.7702C130.736 24.3858 130.283 23.8392 130.013 23.1985C129.742 22.5579 129.667 21.8519 129.796 21.1688C129.926 20.4856 130.253 19.8559 130.739 19.358C131.224 18.8603 131.845 18.5168 132.525 18.3705C133.205 18.2241 133.913 18.2816 134.56 18.5355C135.207 18.7893 135.765 19.2285 136.164 19.798ZM155.005 24.7054C155.005 28.121 152.036 29.576 148.829 29.576C147.533 29.6933 146.232 29.4194 145.094 28.7893C143.955 28.1593 143.032 27.2022 142.443 26.042L146.303 23.8444C146.459 24.3807 146.795 24.8474 147.253 25.1661C147.712 25.485 148.267 25.637 148.823 25.5965C149.891 25.5965 150.427 25.2695 150.427 24.6769C150.427 24.0872 149.476 23.8224 148.261 23.4838C146.107 22.8836 143.12 22.0515 143.12 18.7668C143.12 15.5283 145.853 13.8962 148.942 13.8962C150.103 13.8595 151.252 14.1349 152.27 14.6936C153.289 15.2526 154.139 16.0743 154.732 17.0733L150.931 19.1223C150.764 18.7334 150.487 18.402 150.133 18.1697C149.779 17.9373 149.365 17.8143 148.942 17.8158C148.169 17.8158 147.694 18.1158 147.694 18.6468C147.696 19.2512 148.628 19.496 149.825 19.8107C151.983 20.3778 155.005 21.1717 155.005 24.7054ZM166.823 29.162H171.279V14.3117L166.828 14.3162V22.4164C166.828 24.5254 165.7 25.475 164.066 25.475C163.711 25.4966 163.355 25.4405 163.025 25.3107C162.694 25.181 162.395 24.9807 162.149 24.7237C161.903 24.4668 161.716 24.1593 161.602 23.8227C161.486 23.4862 161.446 23.1286 161.483 22.7749V14.3117H157.028V23.4274C157.028 27.44 159.578 29.5775 162.578 29.5775C163.379 29.6327 164.18 29.4973 164.918 29.1823C165.656 28.8673 166.309 28.3817 166.823 27.7655V29.162ZM196.824 20.0434V29.1605H192.369V20.4289C192.369 18.9438 191.656 17.9943 190.231 17.9943C188.746 17.9943 187.914 19.0338 187.914 20.7859V29.1605H183.46V20.4289C183.46 18.9438 182.748 17.9943 181.321 17.9943C179.836 17.9943 179.005 19.0338 179.005 20.7859V29.1605H174.55V14.3102H179.005V15.6753C179.467 15.0697 180.073 14.5894 180.768 14.2784C181.464 13.9673 182.226 13.8355 182.985 13.8947C183.747 13.8574 184.506 14.0183 185.188 14.3617C185.869 14.7049 186.45 15.2191 186.874 15.8538C187.368 15.1897 188.022 14.6617 188.775 14.3191C189.528 13.9765 190.356 13.8305 191.181 13.8947C194.591 13.8962 196.824 16.3308 196.824 20.0434ZM203.898 10.9142C203.898 12.74 202.418 14.2202 200.592 14.2202C198.767 14.2202 197.286 12.74 197.286 10.9142C197.286 9.08828 198.767 7.60811 200.592 7.60811C202.418 7.60811 203.898 9.08828 203.898 10.9142Z" fill="#FBF7EA"/>
</svg>
