<svg width="173" height="40" viewBox="0 0 173 40" fill="none" xmlns="http://www.w3.org/2000/svg">
<path fill-rule="evenodd" clip-rule="evenodd" d="M38.6619 5.82697C40.183 8.05163 40.9968 10.6839 40.9967 13.3789C40.9955 15.2578 40.598 17.1152 39.8304 18.8301C39.0628 20.545 37.9422 22.0788 36.5418 23.3313V39.9999H0.862061V4.33367H17.7608C19.5829 2.34787 21.9621 0.958652 24.5871 0.34798C27.212 -0.262692 29.9602 -0.0663523 32.4716 0.9113C34.983 1.88894 37.1407 3.60231 38.6619 5.82697ZM33.0383 17.0086C33.7538 15.9335 34.1343 14.6702 34.1315 13.3789C34.128 11.6503 33.4388 9.99365 32.2151 8.7726C30.9916 7.55155 29.3335 6.86579 27.6049 6.86579C26.3136 6.8658 25.0512 7.24892 23.9775 7.96667C22.904 8.68442 22.0675 9.70454 21.5739 10.8979C21.0803 12.0913 20.9518 13.4043 21.2048 14.6706C21.4577 15.9371 22.0806 17.1 22.9947 18.0122C23.9089 18.9245 25.0731 19.545 26.34 19.7953C27.607 20.0456 28.9196 19.9144 30.112 19.4183C31.3044 18.9223 32.3226 18.0836 33.0383 17.0086ZM7.7272 33.1348H29.6767V26.5946C28.9919 26.7081 28.2992 26.767 27.6049 26.7706C24.0543 26.7671 20.6502 25.3549 18.1396 22.8444C15.6288 20.3336 14.2168 16.9295 14.2132 13.3789C14.2191 12.6478 14.2871 11.9185 14.4163 11.1988H7.7272V33.1348ZM53.9416 12.2279H49.595V29.8308H53.9416V12.2279ZM62.4452 16.236C58.3829 16.236 55.6748 18.8493 55.6748 23.2094C55.6748 27.6643 58.2882 30.21 62.4452 30.21C66.6022 30.21 69.2155 27.5695 69.2155 23.2094C69.2155 18.8493 66.5074 16.236 62.4452 16.236ZM62.4858 19.4045C63.9753 19.4045 64.9096 20.8127 64.9096 23.2094L64.9367 23.223C64.9367 25.6603 63.9753 27.0008 62.4858 27.0008C60.9963 27.0008 60.0755 25.6603 60.0755 23.2094C60.0755 20.7586 60.9963 19.4045 62.4858 19.4045ZM75.1463 30.738H70.9487L70.9758 30.7516C71.2195 33.1754 73.6298 34.895 77.3941 34.9086C81.5376 34.9086 84.354 32.9181 84.354 29.736V16.5474H80.0481V18.7313C79.7091 18.0533 79.1902 17.479 78.5456 17.0729C77.8182 16.6146 76.9663 16.3932 76.1077 16.4391C72.709 16.4391 70.6915 19.0389 70.6915 23.2094C70.6915 27.38 72.8038 29.8037 75.9859 29.8037C76.8231 29.8651 77.6592 29.6716 78.3843 29.2486C79.1002 28.8308 79.6749 28.2088 80.0345 27.4625V29.8714C80.0345 31.1984 79.1679 32.0921 77.5024 32.0921C77.0158 32.1545 76.5221 32.056 76.0966 31.8114C75.6712 31.567 75.3374 31.1899 75.1463 30.738ZM77.5295 19.743C79.0731 19.743 80.0481 21.0835 80.0481 23.2094C80.0481 25.4166 79.0867 26.5675 77.5295 26.5675C75.9723 26.5675 75.038 25.3218 75.038 23.2094C75.038 21.0971 75.9859 19.743 77.5295 19.743ZM92.844 16.236C88.7818 16.236 86.0737 18.8493 86.0737 23.2094H86.1008C86.1008 27.6643 88.7006 30.21 92.844 30.21C96.9875 30.21 99.6144 27.5695 99.6144 23.2094C99.6144 18.8493 96.9062 16.236 92.844 16.236ZM92.8847 19.4045C94.3606 19.4045 95.3084 20.8127 95.3084 23.2094L95.3355 23.223C95.3355 25.6603 94.3741 27.0008 92.8847 27.0008C91.3952 27.0008 90.4744 25.6603 90.4744 23.2094C90.4744 20.7586 91.4087 19.4045 92.8847 19.4045ZM101.702 12.0798C101.47 12.4571 101.356 12.8955 101.375 13.3382L101.402 13.3518C101.405 13.6351 101.465 13.9148 101.578 14.1748C101.69 14.4349 101.853 14.67 102.057 14.8664C102.261 15.0629 102.502 15.217 102.766 15.3197C103.03 15.4222 103.312 15.4713 103.595 15.4641C104.039 15.4637 104.471 15.3308 104.838 15.0823C105.205 14.8338 105.49 14.4812 105.654 14.0698C105.819 13.6586 105.857 13.2073 105.764 12.7741C105.67 12.341 105.449 11.9459 105.129 11.6393C104.809 11.3329 104.404 11.1292 103.968 11.0546C103.531 10.9799 103.082 11.0375 102.678 11.2203C102.274 11.403 101.934 11.7023 101.702 12.0798ZM105.775 16.5338H101.375L101.442 29.885H105.775V16.5338ZM116.337 30.0746C119.655 30.0746 121.605 27.556 121.605 23.2094L121.686 23.223C121.686 18.8628 119.722 16.3578 116.31 16.3849C115.451 16.344 114.599 16.5691 113.872 17.0294C113.146 17.4898 112.578 18.1632 112.248 18.9576H112.167V16.5745H107.847V34.1774H112.194V27.5966H112.275C112.617 28.3757 113.19 29.0311 113.916 29.4743C114.643 29.9173 115.488 30.127 116.337 30.0746ZM114.658 19.7295C116.188 19.7295 117.177 21.0971 117.177 23.2094L117.258 23.223C117.258 25.4165 116.188 26.6758 114.658 26.6758C113.128 26.6758 112.14 25.3353 112.153 23.2094C112.167 21.0835 113.128 19.7295 114.658 19.7295ZM134.956 20.7044C134.929 17.9421 132.667 16.2224 129.025 16.2224L129.106 16.236C125.437 16.236 123.162 17.9285 123.08 20.5825C123.08 22.6272 124.448 23.9948 127.061 24.5499L129.58 25.078C130.623 25.2947 131.029 25.4166 131.029 26.1342C131.029 26.8519 130.433 27.2581 129.16 27.2581C127.887 27.2581 127.102 26.6758 126.98 25.6874H122.769C122.945 28.409 125.369 30.1964 129.093 30.1964C132.816 30.1964 135.321 28.3549 135.321 25.6467C135.321 23.6292 134.238 22.5459 131.53 21.9772L128.74 21.4085C127.738 21.2054 127.237 20.9887 127.237 20.2982C127.237 19.6076 127.806 19.1472 128.998 19.1472C130.189 19.1472 130.988 19.743 130.988 20.7044H134.956ZM145.666 29.8714H149.877L149.959 16.5474H145.626V24.0625C145.672 24.3768 145.65 24.6973 145.563 25.0026C145.475 25.3078 145.322 25.5907 145.115 25.832C144.909 26.0733 144.653 26.2675 144.365 26.4014C144.077 26.5352 143.764 26.6057 143.446 26.6081C142.092 26.6081 141.266 25.7551 141.266 24.1843V16.5474H136.919V25.1187C136.865 25.7712 136.95 26.4279 137.168 27.0454C137.386 27.6628 137.731 28.2273 138.184 28.7018C138.635 29.1761 139.182 29.5497 139.787 29.7979C140.392 30.0463 141.045 30.1635 141.699 30.1423C142.566 30.1902 143.423 29.9414 144.129 29.4368C144.836 28.9323 145.349 28.202 145.585 27.3664H145.666V29.8714ZM156.201 16.5338H151.976L152.003 29.885H156.35V22.0043C156.315 21.7304 156.339 21.4521 156.422 21.1882C156.503 20.9244 156.64 20.6811 156.823 20.4746C157.007 20.2681 157.231 20.1033 157.485 19.9911C157.737 19.8789 158.01 19.8221 158.286 19.8242C159.478 19.8242 160.141 20.5419 160.141 21.896V29.885H164.285V21.9772C164.248 21.7064 164.27 21.4308 164.348 21.1692C164.428 20.9076 164.564 20.6665 164.745 20.4619C164.927 20.2574 165.149 20.0945 165.399 19.9844C165.65 19.8745 165.921 19.8198 166.194 19.8242C167.426 19.8242 168.063 20.5825 168.063 21.9366V29.885H172.436V20.8263C172.481 20.233 172.4 19.6372 172.197 19.0777C171.995 18.5182 171.678 18.0076 171.265 17.5795C170.852 17.1512 170.354 16.815 169.801 16.5929C169.25 16.3707 168.657 16.2675 168.063 16.2901C167.169 16.2483 166.285 16.503 165.551 17.0148C164.816 17.5265 164.271 18.2667 164 19.1201H163.811C163.655 18.2713 163.189 17.5107 162.503 16.9873C161.818 16.464 160.961 16.2154 160.101 16.2901C159.245 16.2726 158.407 16.5397 157.718 17.0492C157.03 17.5589 156.529 18.2824 156.296 19.1066H156.201V16.5338Z" fill="#FBF7EA"/>
</svg>
