<svg width="200" height="40" viewBox="0 0 200 40" fill="none" xmlns="http://www.w3.org/2000/svg">
<path fill-rule="evenodd" clip-rule="evenodd" d="M8.91629 4.91937C4.83838 8.10697 1.94416 12.5674 0.694481 17.5902H2.72711C6.15598 17.5397 9.51456 18.5645 12.3313 20.5206C12.4939 20.6383 12.6636 20.7459 12.8394 20.8424H13.0766C13.2524 20.7459 13.4221 20.6383 13.5847 20.5206C16.4263 18.6097 19.7731 17.5892 23.1974 17.5892C26.6217 17.5892 29.9684 18.6097 32.81 20.5206C32.9726 20.6383 33.1423 20.7459 33.3182 20.8424H33.5553C33.7311 20.7459 33.9009 20.6383 34.0635 20.5206C36.8802 18.5645 40.2388 17.5397 43.6676 17.5902H45.7003C44.4505 12.5674 41.5564 8.10697 37.4784 4.91937C33.4005 1.7317 28.3733 0 23.1974 0C18.0215 0 12.9943 1.7317 8.91629 4.91937ZM43.6676 27.008C42.3456 26.973 41.0523 27.3981 40.0089 28.2107C38.0777 29.5551 35.7812 30.2757 33.4283 30.2757C31.0753 30.2757 28.7788 29.5551 26.8476 28.2107C25.8056 27.3956 24.5115 26.9701 23.1889 27.008C21.8672 26.9759 20.5749 27.4007 19.5302 28.2107C17.6026 29.5559 15.3086 30.2772 12.958 30.2772C10.6074 30.2772 8.31345 29.5559 6.38584 28.2107C5.34243 27.3981 4.04918 26.973 2.72711 27.008H0V21.5708H2.8118C5.16931 21.5242 7.47736 22.2498 9.38397 23.6373C10.4438 24.4186 11.7259 24.8402 13.0427 24.8402C14.3595 24.8402 15.6416 24.4186 16.7014 23.6373C18.6326 22.293 20.9291 21.5723 23.2821 21.5723C25.635 21.5723 27.9315 22.293 29.8627 23.6373C30.9225 24.4186 32.2046 24.8402 33.5214 24.8402C34.8382 24.8402 36.1203 24.4186 37.1802 23.6373C39.0636 22.2674 41.3389 21.5426 43.6676 21.5708H46.3947V27.008H43.6676ZM43.6676 36.7308C42.3456 36.6957 41.0523 37.1209 40.0089 37.9334C38.0777 39.2778 35.7812 39.9984 33.4283 39.9984C31.0753 39.9984 28.7788 39.2778 26.8476 37.9334C25.8056 37.1183 24.5115 36.6928 23.1889 36.7308C21.8672 36.6986 20.5749 37.1234 19.5302 37.9334C17.6026 39.2787 15.3086 39.9999 12.958 39.9999C10.6074 39.9999 8.31345 39.2787 6.38584 37.9334C5.34243 37.1209 4.04918 36.6957 2.72711 36.7308H0V31.2935H2.8118C5.16931 31.2469 7.47736 31.9727 9.38397 33.36C10.4438 34.1414 11.7259 34.563 13.0427 34.563C14.3595 34.563 15.6416 34.1414 16.7014 33.36C18.6326 32.0158 20.9291 31.2952 23.2821 31.2952C25.635 31.2952 27.9315 32.0158 29.8627 33.36C30.9225 34.1414 32.2046 34.563 33.5214 34.563C34.8382 34.563 36.1203 34.1414 37.1802 33.36C39.0636 31.9902 41.3389 31.2654 43.6676 31.2935H46.3947V36.7308H43.6676ZM136.575 10.5983C135.743 10.284 134.856 10.1402 133.967 10.1753C133.191 10.1584 132.42 10.3 131.701 10.5911C130.981 10.8825 130.329 11.3173 129.783 11.8692C129.499 11.3137 129.055 10.8557 128.509 10.5539C127.963 10.2522 127.339 10.1202 126.717 10.1753C126.094 10.1639 125.474 10.2673 124.888 10.4802C124.769 10.5147 124.665 10.5891 124.594 10.6909C124.524 10.7925 124.49 10.9155 124.498 11.0392V13.0379C124.498 13.3089 124.685 13.4444 125.057 13.4444H125.616C125.752 13.4246 125.891 13.4366 126.021 13.4798C126.152 13.523 126.27 13.596 126.367 13.6931C126.464 13.7902 126.537 13.9087 126.581 14.039C126.624 14.1694 126.636 14.308 126.616 14.4438V28.3334C126.604 28.3985 126.607 28.4654 126.627 28.5284C126.647 28.5916 126.681 28.6488 126.728 28.6956C126.775 28.7423 126.832 28.7769 126.895 28.7965C126.958 28.816 127.025 28.8199 127.09 28.8077H129.936C130.258 28.8077 130.427 28.6553 130.427 28.3334V22.2186C131.456 22.9614 132.699 23.3479 133.967 23.3196C134.858 23.3555 135.746 23.2104 136.579 22.8929C137.411 22.5757 138.171 22.0928 138.812 21.4733C140.009 20.1879 140.675 18.496 140.675 16.739C140.675 14.982 140.009 13.2903 138.812 12.0047C138.168 11.3908 137.407 10.9126 136.575 10.5983ZM132.391 20.0098C131.99 19.8382 131.627 19.587 131.325 19.2713C130.713 18.5497 130.393 17.6254 130.427 16.6797C130.388 15.7333 130.708 14.8073 131.325 14.0881C131.627 13.7725 131.99 13.5213 132.391 13.3498C132.793 13.178 133.225 13.0896 133.662 13.0896C134.099 13.0896 134.531 13.178 134.933 13.3498C135.335 13.5213 135.698 13.7725 136 14.0881C136.641 14.7948 136.976 15.7267 136.931 16.6797C136.97 17.632 136.636 18.5617 136 19.2713C135.698 19.587 135.335 19.8382 134.933 20.0098C134.531 20.1814 134.099 20.2698 133.662 20.2698C133.225 20.2698 132.793 20.1814 132.391 20.0098ZM61.2495 28.5787C62.0742 29.16 63.0707 29.4464 64.0782 29.3917C64.7346 29.3844 65.3859 29.2759 66.0092 29.0699C66.0721 29.0663 66.1334 29.0492 66.1891 29.0199C66.2447 28.9906 66.2934 28.9496 66.3319 28.8998C66.3705 28.8502 66.398 28.7926 66.4124 28.7314C66.4268 28.6701 66.4279 28.6066 66.4157 28.5448L66.1617 26.4275C66.1447 26.1226 65.9584 26.0209 65.6196 26.0209C65.3771 26.0875 65.1257 26.116 64.8743 26.1056C64.2815 26.1056 63.9935 25.7838 63.9935 25.1401V10.6577C63.9935 10.3358 63.8411 10.1664 63.5193 10.1664H60.6736C60.6072 10.1583 60.5396 10.1652 60.4762 10.1871C60.4129 10.2088 60.3555 10.2447 60.308 10.2921C60.2606 10.3395 60.2247 10.397 60.203 10.4603C60.1812 10.5237 60.1742 10.5913 60.1824 10.6577V26.3597C60.1668 26.7884 60.2557 27.2144 60.4417 27.6011C60.6277 27.9877 60.905 28.3232 61.2495 28.5787ZM75.0036 26.7326C76.8584 26.7326 78.6554 26.0864 80.0852 24.9049V24.888C81.3131 23.6076 81.9986 21.9022 81.9986 20.1283C81.9986 18.3543 81.3131 16.6489 80.0852 15.3685C78.6525 14.1932 76.8567 13.5509 75.0036 13.5509C73.1505 13.5509 71.3547 14.1932 69.922 15.3685C68.6654 16.6372 67.9602 18.3509 67.9602 20.1367C67.9602 21.9226 68.6654 23.6362 69.922 24.9049C71.352 26.0864 73.1488 26.7326 75.0036 26.7326ZM75.0206 23.603C74.1252 23.603 73.262 23.2702 72.5983 22.6691C71.9979 21.9786 71.6671 21.0943 71.6671 20.1791C71.6671 19.2641 71.9979 18.3797 72.5983 17.6891C73.262 17.0881 74.1252 16.7551 75.0206 16.7551C75.9159 16.7551 76.7793 17.0881 77.4428 17.6891C78.0434 18.3797 78.3741 19.2641 78.3741 20.1791C78.3741 21.0943 78.0434 21.9786 77.4428 22.6691C76.7793 23.2702 75.9159 23.603 75.0206 23.603ZM97.6676 10.5569C97.9894 10.5569 98.1419 10.7263 98.1419 11.0482V23.1931C98.1715 24.0129 98.018 24.8289 97.6928 25.5818C97.3676 26.3349 96.8788 27.006 96.2617 27.5463C94.892 28.7142 93.1308 29.3195 91.3326 29.2402C89.7085 29.2973 88.1059 28.8538 86.7422 27.9698C86.1599 27.5875 85.6624 27.0893 85.2807 26.5066C84.8989 25.9238 84.6412 25.2688 84.5233 24.5821C84.5233 24.2433 84.5232 24.0909 84.9806 24.0909H87.8263C87.947 24.0949 88.0643 24.134 88.1634 24.2032C88.2626 24.2723 88.3397 24.3685 88.3852 24.4804C88.5699 24.9949 88.9378 25.4232 89.4185 25.6831C90.0044 25.9854 90.6565 26.1369 91.3156 26.1235C91.7133 26.1453 92.1114 26.0876 92.4866 25.9538C92.8618 25.8201 93.2065 25.6128 93.5007 25.3443C93.7695 25.0635 93.9785 24.731 94.1154 24.3671C94.2523 24.0033 94.3139 23.6154 94.2968 23.227V22.1599C93.2779 22.9092 92.0379 23.2968 90.7736 23.2609C89.8887 23.293 89.0066 23.1462 88.1798 22.8289C87.3532 22.5115 86.5992 22.0306 85.963 21.4146C84.7419 20.1513 84.0593 18.4628 84.0593 16.7056C84.0593 14.9486 84.7419 13.2602 85.963 11.9967C86.6023 11.3862 87.3572 10.9099 88.1833 10.5957C89.0096 10.2815 89.8902 10.1358 90.7736 10.1673C92.0745 10.133 93.3479 10.5456 94.3815 11.3361V11.0651C94.3737 11.0002 94.3805 10.9343 94.4013 10.8723C94.4222 10.8105 94.4565 10.7539 94.5019 10.7068C94.5473 10.6598 94.6027 10.6235 94.6639 10.6005C94.7252 10.5774 94.7907 10.5685 94.8558 10.5739L97.6676 10.5569ZM91.0954 20.2458C91.5318 20.2593 91.9659 20.1769 92.3668 20.0041C92.7678 19.8315 93.126 19.5728 93.416 19.2464C93.9792 18.5192 94.2848 17.6254 94.2848 16.7056C94.2848 15.7859 93.9792 14.8922 93.416 14.1648C93.127 13.843 92.771 13.5881 92.3731 13.4184C91.975 13.2486 91.5448 13.1682 91.1124 13.1824C90.6709 13.1685 90.2319 13.2507 89.8254 13.4233C89.4188 13.5959 89.0547 13.8547 88.7579 14.1818C88.134 14.8775 87.8059 15.7889 87.8432 16.7226C87.8127 17.6471 88.1335 18.5489 88.741 19.2464C89.0384 19.5727 89.4027 19.831 89.8091 20.0034C90.2155 20.1758 90.6542 20.2585 91.0954 20.2458ZM107.678 26.7177C109.531 26.7177 111.327 26.0754 112.76 24.9V24.8831C113.988 23.6027 114.673 21.8973 114.673 20.1234C114.673 18.3494 113.988 16.644 112.76 15.3636C111.326 14.1913 109.531 13.5509 107.678 13.5509C105.826 13.5509 104.031 14.1913 102.597 15.3636C101.368 16.6469 100.682 18.3551 100.682 20.1318C100.682 21.9087 101.368 23.6168 102.597 24.9C104.029 26.0754 105.825 26.7177 107.678 26.7177ZM106.382 23.3744C105.964 23.2145 105.581 22.9731 105.256 22.6641C104.666 21.969 104.341 21.0865 104.341 20.1742C104.341 19.2619 104.666 18.3794 105.256 17.6842C105.581 17.3754 105.964 17.1339 106.382 16.974C106.801 16.8141 107.247 16.7389 107.695 16.7526C108.14 16.7411 108.584 16.8175 108.999 16.9774C109.415 17.1371 109.795 17.3774 110.118 17.6842C110.708 18.3794 111.033 19.2619 111.033 20.1742C111.033 21.0865 110.708 21.969 110.118 22.6641C109.795 22.9711 109.415 23.2113 108.999 23.3712C108.584 23.5311 108.14 23.6073 107.695 23.5958C107.247 23.6097 106.801 23.5343 106.382 23.3744ZM120.789 13.736C120.341 14.128 119.766 14.3439 119.171 14.3439C118.576 14.3439 118.002 14.128 117.554 13.736C117.351 13.5444 117.189 13.3134 117.078 13.0571C116.968 12.8008 116.911 12.5245 116.911 12.2454C116.911 11.9663 116.968 11.6902 117.078 11.4337C117.189 11.1774 117.351 10.9464 117.554 10.7548C118.006 10.3727 118.579 10.1631 119.171 10.1631C119.763 10.1631 120.337 10.3727 120.789 10.7548C120.992 10.9464 121.154 11.1774 121.264 11.4337C121.375 11.6902 121.432 11.9663 121.432 12.2454C121.432 12.5245 121.375 12.8008 121.264 13.0571C121.154 13.3134 120.992 13.5444 120.789 13.736ZM121.145 29.3534C120.138 29.4028 119.143 29.1169 118.316 28.5403C117.977 28.2811 117.704 27.9444 117.521 27.5584C117.339 27.1723 117.251 26.7482 117.266 26.3214V17.1068C117.258 17.0404 117.265 16.9728 117.286 16.9094C117.308 16.8461 117.344 16.7887 117.391 16.7412C117.439 16.6938 117.496 16.6579 117.56 16.6362C117.623 16.6144 117.691 16.6074 117.757 16.6156H120.603C120.924 16.6156 121.077 16.7849 121.077 17.1068V25.1018C121.077 25.7454 121.365 26.0673 121.941 26.0673C122.198 26.0766 122.455 26.048 122.703 25.9826C123.042 25.9826 123.228 26.0842 123.245 26.3891L123.499 28.5064C123.511 28.5683 123.51 28.6318 123.496 28.6931C123.481 28.7542 123.454 28.8118 123.415 28.8615C123.377 28.9113 123.328 28.9523 123.272 28.9816C123.217 29.0109 123.155 29.028 123.093 29.0315C122.464 29.2387 121.807 29.3473 121.145 29.3534ZM148.67 26.7717C147.149 26.8342 145.642 26.4705 144.317 25.7215C143.785 25.4014 143.333 24.9655 142.992 24.4465C142.652 23.9275 142.433 23.3386 142.352 22.7234C142.352 22.3846 142.47 22.2152 142.843 22.2152H145.333C145.451 22.22 145.566 22.2571 145.665 22.323C145.764 22.3887 145.842 22.4803 145.892 22.5879C146.248 23.5026 147.179 23.9599 148.67 23.9599C149.19 23.9838 149.708 23.8789 150.177 23.655C150.34 23.5818 150.479 23.466 150.58 23.3198C150.682 23.1736 150.741 23.0025 150.753 22.825C150.753 22.3846 150.482 22.0797 149.94 21.8765C149.297 21.6625 148.633 21.5204 147.958 21.453C147.16 21.3625 146.368 21.2211 145.587 21.0295C144.828 20.8578 144.138 20.4624 143.605 19.8946C143.292 19.5088 143.061 19.0625 142.927 18.5836C142.794 18.1047 142.76 17.6034 142.828 17.111C142.897 16.6184 143.065 16.1451 143.324 15.7208C143.583 15.2963 143.927 14.9298 144.334 14.6437C145.555 13.866 146.987 13.4871 148.433 13.5596C149.833 13.5124 151.217 13.8586 152.43 14.559C152.919 14.8359 153.34 15.2182 153.662 15.6783C153.985 16.1383 154.2 16.6645 154.293 17.2183C154.293 17.5571 154.141 17.7265 153.836 17.7265H151.329C151.224 17.7328 151.119 17.707 151.028 17.6527C150.937 17.5983 150.865 17.5177 150.821 17.4216C150.654 17.0205 150.338 16.699 149.94 16.5239C149.491 16.2891 148.99 16.1724 148.484 16.1851C147.987 16.1582 147.492 16.2573 147.044 16.4731C146.886 16.534 146.75 16.6407 146.653 16.7796C146.557 16.9185 146.504 17.0832 146.502 17.2522C146.513 17.4839 146.597 17.706 146.744 17.8859C146.89 18.0658 147.09 18.1938 147.315 18.2516C147.965 18.4969 148.642 18.6673 149.33 18.7598C150.123 18.8641 150.909 19.0111 151.685 19.2002C152.444 19.3721 153.134 19.7673 153.667 20.335C153.952 20.6479 154.172 21.0139 154.314 21.4123C154.456 21.8106 154.519 22.2332 154.497 22.6556C154.511 23.2412 154.374 23.8205 154.098 24.3371C153.822 24.8536 153.416 25.2897 152.921 25.6029C151.656 26.4155 150.173 26.823 148.67 26.7717ZM172.394 25.6225C172.408 25.5633 172.411 25.5019 172.401 25.4417L172.198 23.3244C172.194 23.258 172.177 23.193 172.147 23.1344C172.115 23.0758 172.071 23.0249 172.016 22.9858C171.962 22.9467 171.901 22.9203 171.835 22.9086C171.771 22.8967 171.703 22.8999 171.639 22.9179C171.385 22.9843 171.122 23.0127 170.86 23.0026C170.301 23.0026 170.013 22.6807 170.013 22.0201V14.0421C170.013 13.7202 169.86 13.5509 169.538 13.5509H166.659C166.337 13.5509 166.184 13.7202 166.184 14.0421V20.2755C166.201 20.6457 166.144 21.0157 166.012 21.3624C165.881 21.7091 165.68 22.0252 165.422 22.2912C165.15 22.5435 164.829 22.7393 164.48 22.8672C164.132 22.9953 163.761 23.0527 163.39 23.0365C163.027 23.0507 162.665 22.987 162.329 22.8496C161.994 22.7122 161.691 22.5046 161.442 22.2403C160.942 21.6637 160.683 20.9188 160.713 20.1569V14.0421C160.713 13.7202 160.561 13.5509 160.239 13.5509H157.393C157.072 13.5509 156.919 13.7202 156.919 14.0421V20.6651C156.883 21.412 156.997 22.1585 157.256 22.86C157.516 23.5614 157.913 24.2034 158.427 24.7472C158.943 25.2664 159.563 25.6718 160.246 25.9372C160.928 26.2026 161.658 26.3224 162.39 26.2887C163.966 26.3715 165.514 25.8437 166.71 24.815C167.099 25.3315 167.616 25.7385 168.21 25.9966C168.803 26.2548 169.454 26.3554 170.097 26.2887C170.748 26.2773 171.393 26.1687 172.011 25.9668C172.072 25.9585 172.13 25.9384 172.182 25.9074C172.235 25.8764 172.281 25.8352 172.316 25.7863C172.353 25.7373 172.379 25.6817 172.394 25.6225ZM199.316 25.8598C199.332 25.9204 199.333 25.9838 199.322 26.0451C199.308 26.1063 199.283 26.1642 199.245 26.2143C199.208 26.2645 199.161 26.3058 199.105 26.3353C199.051 26.3649 198.99 26.3819 198.927 26.3849C198.297 26.5897 197.641 26.6983 196.979 26.7067C195.971 26.7587 194.977 26.4726 194.15 25.8937C193.793 25.6457 193.503 25.3135 193.305 24.9265C193.107 24.5394 193.007 24.1094 193.015 23.6747V19.6942C193.051 18.9346 192.797 18.1899 192.304 17.6107C192.067 17.346 191.772 17.1373 191.445 16.9996C191.117 16.862 190.762 16.7989 190.407 16.8146C190.087 16.8026 189.768 16.8634 189.473 16.9925C189.18 17.1215 188.921 17.3157 188.713 17.5599C188.266 18.1275 188.037 18.8369 188.069 19.5587V25.809C188.069 26.1308 187.917 26.3002 187.595 26.3002H184.732C184.666 26.3085 184.599 26.3014 184.536 26.2797C184.471 26.2579 184.414 26.222 184.366 26.1745C184.319 26.1273 184.283 26.0697 184.261 26.0063C184.239 25.943 184.233 25.8756 184.241 25.809V19.6942C184.278 18.9429 184.043 18.2034 183.581 17.6107C183.374 17.3617 183.115 17.1613 182.822 17.0238C182.53 16.8863 182.21 16.8148 181.887 16.8146C181.541 16.8007 181.197 16.8598 180.875 16.9884C180.554 17.1168 180.264 17.3116 180.023 17.5599C179.539 18.1094 179.29 18.8273 179.329 19.5587V25.809C179.337 25.8756 179.331 25.943 179.309 26.0063C179.287 26.0697 179.251 26.1273 179.204 26.1745C179.156 26.222 179.099 26.2579 179.036 26.2797C178.972 26.3014 178.904 26.3085 178.838 26.3002H176.077C175.755 26.3002 175.602 26.1308 175.602 25.809V17.8309C175.623 17.6951 175.611 17.5565 175.567 17.4261C175.525 17.2958 175.452 17.1773 175.353 17.0802C175.257 16.9832 175.138 16.9101 175.008 16.867C174.877 16.8238 174.739 16.8117 174.603 16.8316H174.044C173.671 16.8316 173.485 16.696 173.485 16.425V14.4263C173.477 14.3026 173.511 14.1796 173.582 14.078C173.653 13.9762 173.756 13.9019 173.875 13.8673C174.461 13.6544 175.081 13.5511 175.704 13.5624C176.302 13.5114 176.903 13.6307 177.437 13.9064C177.97 14.1822 178.414 14.6031 178.719 15.1208C179.29 14.5792 179.968 14.1612 180.708 13.893C181.448 13.6249 182.236 13.5124 183.022 13.5624C183.785 13.5251 184.546 13.6683 185.244 13.9803C185.942 14.2923 186.555 14.7642 187.036 15.3579C187.597 14.7486 188.286 14.2716 189.053 13.961C189.821 13.6505 190.647 13.5145 191.474 13.5624C192.212 13.5279 192.951 13.6469 193.642 13.9124C194.333 14.1776 194.962 14.5833 195.488 15.1038C196.003 15.6467 196.401 16.2885 196.66 16.9903C196.92 17.6919 197.035 18.439 196.996 19.186V22.4552C196.996 23.0988 197.284 23.4207 197.826 23.4207C198.088 23.4328 198.351 23.4044 198.605 23.336C198.956 23.336 199.142 23.4715 199.164 23.7425L199.316 25.8598Z" fill="#FBF7EA"/>
</svg>
