<svg width="33" height="40" viewBox="0 0 33 40" fill="none" xmlns="http://www.w3.org/2000/svg">
<path fill-rule="evenodd" clip-rule="evenodd" d="M32.9848 20C32.9848 31.0457 32.1237 40 31.0614 40C29.9991 40 29.138 31.0457 29.138 20C29.138 8.9543 29.9991 0 31.0614 0C32.1237 0 32.9848 8.9543 32.9848 20ZM26.4485 38.1277C27.4026 38.1277 28.1761 30.0688 28.1761 20.1277C28.1761 10.1866 27.4026 2.12766 26.4485 2.12766C25.4944 2.12766 24.7208 10.1866 24.7208 20.1277C24.7208 30.0688 25.4944 38.1277 26.4485 38.1277ZM23.8529 19.9277C23.8529 28.877 23.1556 36.1319 22.2954 36.1319C21.4352 36.1319 20.738 28.877 20.738 19.9277C20.738 10.9783 21.4352 3.72341 22.2954 3.72341C23.1556 3.72341 23.8529 10.9783 23.8529 19.9277ZM18.5593 34.4766C19.3349 34.4766 19.9636 27.9495 19.9636 19.8979C19.9636 11.8463 19.3349 5.31915 18.5593 5.31915C17.7837 5.31915 17.1551 11.8463 17.1551 19.8979C17.1551 27.9495 17.7837 34.4766 18.5593 34.4766ZM16.457 20.0383C16.457 27.2861 15.8931 33.1617 15.1974 33.1617C14.5018 33.1617 13.9379 27.2861 13.9379 20.0383C13.9379 12.7905 14.5018 6.9149 15.1974 6.9149C15.8931 6.9149 16.457 12.7905 16.457 20.0383ZM12.1676 32.1362C12.7927 32.1362 13.2995 26.8474 13.2995 20.3234C13.2995 13.7994 12.7927 8.51064 12.1676 8.51064C11.5425 8.51064 11.0357 13.7994 11.0357 20.3234C11.0357 26.8474 11.5425 32.1362 12.1676 32.1362ZM10.4571 20.2043C10.4571 26.0749 9.99984 30.8341 9.43584 30.8341C8.87184 30.8341 8.41456 26.0749 8.41456 20.2043C8.41456 14.3336 8.87184 9.57447 9.43584 9.57447C9.99984 9.57447 10.4571 14.3336 10.4571 20.2043ZM6.98476 29.7702C7.49242 29.7702 7.90391 25.4874 7.90391 20.2043C7.90391 14.9211 7.49242 10.6383 6.98476 10.6383C6.4771 10.6383 6.06562 14.9211 6.06562 20.2043C6.06562 25.4874 6.4771 29.7702 6.98476 29.7702ZM5.6059 20.3149C5.6059 25.0716 5.23628 28.9277 4.78037 28.9277C4.32445 28.9277 3.95484 25.0716 3.95484 20.3149C3.95484 15.5582 4.32445 11.7021 4.78037 11.7021C5.23628 11.7021 5.6059 15.5582 5.6059 20.3149ZM2.78909 27.7234C3.20271 27.7234 3.53802 24.256 3.53802 19.9787C3.53802 15.7015 3.20271 12.2341 2.78909 12.2341C2.37546 12.2341 2.04015 15.7015 2.04015 19.9787C2.04015 24.256 2.37546 27.7234 2.78909 27.7234ZM1.00169 27.2383C1.37301 27.2383 1.67403 24.1176 1.67403 20.2681C1.67403 16.4186 1.37301 13.2979 1.00169 13.2979C0.630359 13.2979 0.329346 16.4186 0.329346 20.2681C0.329346 24.1176 0.630359 27.2383 1.00169 27.2383Z" fill="#FBF7EA"/>
</svg>
