<svg width="85" height="40" viewBox="0 0 85 40" fill="none" xmlns="http://www.w3.org/2000/svg">
<path fill-rule="evenodd" clip-rule="evenodd" d="M38.0665 8.8051C38.0665 13.668 34.1243 17.6103 29.2614 17.6103C24.3985 17.6103 20.4563 13.668 20.4563 8.8051C20.4563 3.94219 24.3985 0 29.2614 0C34.1243 0 38.0665 3.94219 38.0665 8.8051ZM0.764404 24.0147H3.28256V36.362H0.764404V24.0147ZM4.74307 32.1315C4.74141 31.2447 5.00288 30.3772 5.49439 29.639C5.9859 28.9007 6.68536 28.3249 7.50426 27.9844C8.3231 27.6439 9.22461 27.5539 10.0947 27.7259C10.9647 27.8979 11.7642 28.3241 12.3918 28.9507C13.0195 29.5772 13.4473 30.3759 13.6209 31.2455C13.7946 32.1152 13.7063 33.0169 13.3673 33.8365C13.0283 34.6559 12.4538 35.3565 11.7164 35.8494C10.9792 36.3424 10.1123 36.6054 9.22541 36.6054C8.63554 36.6121 8.05039 36.5011 7.50408 36.2787C6.95778 36.0564 6.46135 35.7272 6.04389 35.3105C5.62643 34.8939 5.29634 34.3981 5.07297 33.8521C4.84961 33.3063 4.73745 32.7213 4.74307 32.1315ZM11.1727 32.1315C11.1628 31.7487 11.0403 31.3772 10.8203 31.0637C10.6004 30.7501 10.293 30.5084 9.93635 30.3687C9.57972 30.2289 9.18986 30.1975 8.81555 30.2783C8.44114 30.359 8.09892 30.5483 7.83154 30.8225C7.56426 31.0967 7.38372 31.4438 7.31256 31.8201C7.2414 32.1964 7.28281 32.5854 7.43154 32.9383C7.58034 33.2911 7.82986 33.5924 8.14888 33.8042C8.46799 34.016 8.84239 34.1291 9.22541 34.1292C9.48737 34.1366 9.74808 34.0895 9.99101 33.9911C10.2339 33.8926 10.4539 33.7448 10.6369 33.5571C10.8198 33.3694 10.9619 33.1458 11.0541 32.9005C11.1464 32.6551 11.1867 32.3933 11.1727 32.1315ZM23.8306 35.9423V27.901L21.3544 27.9262V28.7655C21.0571 28.4029 20.6791 28.1146 20.2507 27.9237C19.8222 27.7328 19.3552 27.6446 18.8867 27.666C17.7468 27.666 16.6538 28.1188 15.8477 28.9247C15.0418 29.7307 14.589 30.8238 14.589 31.9636C14.589 33.1034 15.0418 34.1966 15.8477 35.0025C16.6538 35.8085 17.7468 36.2613 18.8867 36.2613C19.3555 36.2847 19.8232 36.1973 20.2519 36.0063C20.6806 35.8152 21.0584 35.5259 21.3544 35.1616V35.9423C21.3785 36.1983 21.3435 36.4563 21.252 36.6966C21.1605 36.9368 21.0151 37.1529 20.827 37.3281C20.6388 37.5033 20.413 37.6329 20.1667 37.707C19.9205 37.7811 19.6606 37.7976 19.4071 37.7553C19.0217 37.7872 18.6356 37.7026 18.2989 37.5126C17.9622 37.3225 17.6903 37.0357 17.5185 36.6894L15.3529 37.94C15.7681 38.6159 16.3612 39.1645 17.0675 39.5257C17.7737 39.887 18.5657 40.047 19.3567 39.9881C21.6062 39.9881 23.8306 38.7878 23.8306 35.9423ZM21.0508 30.8038C21.2654 31.1515 21.3712 31.5554 21.3544 31.9636C21.3621 32.2309 21.3138 32.4967 21.2124 32.7441C21.1111 32.9915 20.959 33.215 20.7661 33.4C20.5731 33.5851 20.3435 33.7276 20.0921 33.8185C19.8407 33.9095 19.5731 33.9466 19.3063 33.9278C18.8978 33.9274 18.4987 33.8049 18.1603 33.5759C17.8219 33.3469 17.5597 33.022 17.4075 32.6428C17.2552 32.2637 17.2198 31.8476 17.3059 31.4482C17.392 31.0488 17.5955 30.6843 17.8905 30.4015C18.1853 30.1187 18.558 29.9305 18.9607 29.8613C19.3634 29.7919 19.7776 29.8447 20.15 30.0127C20.5225 30.1806 20.8362 30.4561 21.0508 30.8038ZM25.2828 32.1315C25.2811 31.2447 25.5426 30.3772 26.034 29.639C26.5256 28.9007 27.2251 28.3249 28.0439 27.9844C28.8628 27.6439 29.7643 27.5539 30.6343 27.7259C31.5044 27.8979 32.3038 28.3241 32.9315 28.9507C33.5592 29.5772 33.9869 30.3759 34.1606 31.2455C34.3342 32.1152 34.2459 33.0169 33.9069 33.8365C33.5679 34.6559 32.9934 35.3565 32.2562 35.8494C31.5188 36.3424 30.6519 36.6054 29.7651 36.6054C29.1753 36.6121 28.59 36.5011 28.0437 36.2787C27.4974 36.0564 27.001 35.7272 26.5835 35.3105C26.1661 34.8939 25.836 34.3981 25.6126 33.8521C25.3892 33.3063 25.2771 32.7213 25.2828 32.1315ZM31.7124 32.1315C31.7025 31.7487 31.5799 31.3772 31.36 31.0637C31.1401 30.7501 30.8326 30.5084 30.476 30.3687C30.1195 30.2289 29.7296 30.1975 29.3552 30.2783C28.9808 30.359 28.6386 30.5483 28.3712 30.8225C28.1039 31.0967 27.9234 31.4438 27.8522 31.8201C27.7811 32.1964 27.8225 32.5854 27.9712 32.9383C28.12 33.2911 28.3695 33.5924 28.6885 33.8042C29.0076 34.016 29.382 34.1291 29.7651 34.1292C30.0257 34.1342 30.2845 34.0855 30.5255 33.9859C30.7664 33.8863 30.9843 33.7383 31.1654 33.5508C31.3466 33.3634 31.4871 33.1406 31.5784 32.8964C31.6696 32.6522 31.7095 32.3918 31.6956 32.1315H31.7124ZM35.6716 24.786C35.5037 25.0372 35.4141 25.3326 35.4141 25.6347C35.4164 26.0392 35.578 26.4265 35.864 26.7125C36.15 26.9985 36.5373 27.1602 36.9418 27.1623C37.244 27.1623 37.5393 27.0727 37.7906 26.9049C38.0418 26.7371 38.2376 26.4984 38.3532 26.2193C38.4688 25.9402 38.4991 25.633 38.4401 25.3367C38.3812 25.0403 38.2357 24.7681 38.022 24.5544C37.8084 24.3408 37.5362 24.1953 37.2398 24.1364C36.9435 24.0775 36.6364 24.1077 36.3572 24.2233C36.078 24.339 35.8395 24.5348 35.6716 24.786ZM38.1924 27.901H35.6743V36.362H38.1924V27.901ZM49.1715 32.1315C49.202 32.6908 49.1216 33.2506 48.9349 33.7787C48.7482 34.3068 48.4589 34.7927 48.0836 35.2086C47.7084 35.6244 47.2546 35.9619 46.7484 36.2016C46.2421 36.4414 45.6935 36.5786 45.134 36.6055C44.6644 36.6279 44.1954 36.5472 43.7604 36.3688C43.3252 36.1904 42.9346 35.9188 42.6159 35.573V39.7699H40.0978V27.901H42.6159V28.6984C42.9346 28.3527 43.3252 28.081 43.7604 27.9026C44.1954 27.7242 44.6644 27.6435 45.134 27.666C45.6928 27.6928 46.2407 27.8298 46.7463 28.069C47.252 28.3083 47.7054 28.645 48.0805 29.0599C48.4557 29.4749 48.7452 29.9598 48.9324 30.4869C49.1196 31.014 49.2009 31.5729 49.1715 32.1315ZM46.6533 32.1315C46.6434 31.7375 46.518 31.3551 46.2929 31.0317C46.0677 30.7083 45.7527 30.4579 45.3868 30.3118C45.0208 30.1655 44.6199 30.1299 44.234 30.2093C43.8479 30.2886 43.4936 30.4794 43.2149 30.7581C42.9363 31.0367 42.7455 31.391 42.6661 31.777C42.5868 32.1631 42.6225 32.5639 42.7686 32.9298C42.9148 33.2958 43.1652 33.6109 43.4886 33.8359C43.8121 34.0611 44.1945 34.1864 44.5884 34.1964C44.8634 34.2139 45.1388 34.1723 45.3964 34.0745C45.654 33.9767 45.8876 33.8248 46.0816 33.6293C46.2756 33.4336 46.4255 33.1988 46.5212 32.9405C46.6169 32.6822 46.6563 32.4063 46.6365 32.1315H46.6533ZM53.486 36.6054C55.3326 36.6054 57.0114 35.7744 57.0114 33.8271C57.0114 31.8106 55.2845 31.3609 54.0462 31.0384C53.3617 30.8602 52.8264 30.7208 52.8145 30.3772C52.8145 30.0666 53.0831 29.8987 53.5196 29.8987C53.7618 29.8993 53.9985 29.9703 54.2012 30.1029C54.4038 30.2355 54.5636 30.4241 54.6612 30.6458L56.8687 29.4874C56.5292 28.9178 56.0436 28.4493 55.462 28.1305C54.8805 27.8117 54.2244 27.6543 53.5615 27.6743C51.7652 27.6743 50.204 28.6061 50.204 30.4527C50.204 32.3195 51.9181 32.791 53.1554 33.1314C53.8542 33.3236 54.4009 33.474 54.4009 33.8103C54.4009 34.146 54.0988 34.3391 53.486 34.3391C53.1686 34.3615 52.8532 34.2745 52.5921 34.0928C52.331 33.9111 52.1399 33.6455 52.0507 33.3402L49.8515 34.5909C50.187 35.2511 50.7125 35.7957 51.3602 36.1547C52.0079 36.5137 52.7483 36.6707 53.486 36.6054ZM66.2781 36.362H63.7599V35.573C63.467 35.9236 63.0953 36.1999 62.6751 36.3793C62.255 36.5588 61.7983 36.6362 61.3425 36.6055C59.6637 36.6055 58.178 35.3883 58.178 33.0968V27.901H60.6962V32.7275C60.674 32.9332 60.6981 33.1412 60.7663 33.3365C60.8346 33.5318 60.9454 33.7094 61.0909 33.8565C61.2364 34.0036 61.4128 34.1164 61.6073 34.1868C61.8018 34.2573 62.0096 34.2834 62.2155 34.2636C63.1388 34.2636 63.7852 33.7263 63.7852 32.5261V27.901H66.2781V36.362ZM80.833 36.3619V31.1745C80.833 29.0593 79.5655 27.666 77.6517 27.666C77.1821 27.6297 76.711 27.7132 76.2824 27.9084C75.8538 28.1036 75.4816 28.4043 75.2007 28.7823C74.9591 28.4207 74.6281 28.1279 74.2398 27.9322C73.8515 27.7367 73.419 27.6448 72.9847 27.666C72.5523 27.6329 72.1184 27.7086 71.7226 27.886C71.3268 28.0633 70.9816 28.3368 70.7184 28.6816V27.901H68.2003V36.3619H70.7184V31.5943C70.7184 30.5954 71.2221 29.9994 72.0362 29.9994C72.8504 29.9994 73.2533 30.5535 73.2533 31.3928V36.3619H75.7715V31.5943C75.7715 30.5954 76.2919 29.9994 77.0977 29.9994C77.9035 29.9994 78.3148 30.5535 78.3148 31.3928V36.3619H80.833ZM82.9819 27.8507C84.0203 27.8507 84.8621 27.0088 84.8621 25.9704C84.8621 24.932 84.0203 24.0903 82.9819 24.0903C81.9435 24.0903 81.1016 24.932 81.1016 25.9704C81.1016 27.0088 81.9435 27.8507 82.9819 27.8507ZM48.9449 17.6103C53.8078 17.6103 57.75 13.668 57.75 8.8051C57.75 3.94219 53.8078 0 48.9449 0C44.082 0 40.1397 3.94219 40.1397 8.8051C40.1397 13.668 44.082 17.6103 48.9449 17.6103ZM0.781195 0H18.383V17.6018H0.781195V0Z" fill="#FBF7EA"/>
</svg>
