<svg width="83" height="40" viewBox="0 0 83 40" fill="none" xmlns="http://www.w3.org/2000/svg">
<path fill-rule="evenodd" clip-rule="evenodd" d="M20.7849 19.5862L20.6082 19.6236L26.0881 25.1035V40H21.3984L15.8811 34.4828H20.5708V19.5861L20.7849 19.5862ZM20.5708 14.8966V19.5861H15.8814L15.8813 23.2951H6.50209L0.984863 17.7779L15.8811 17.7778V14.8966H20.5708ZM20.5708 14.8966L26.0881 14.8965V5.51724L20.5708 0V14.8966ZM52.3296 23.1098H51.8335V21.8946C52.0832 22.11 52.3934 22.2781 52.7643 22.3988C53.0725 22.5039 53.3922 22.5663 53.7237 22.5859C53.9416 22.7705 54.1893 22.9311 54.4669 23.0679C55.0448 23.3437 55.7167 23.4816 56.4837 23.4816C57.1751 23.4816 57.7897 23.3695 58.327 23.1455C58.5474 23.2172 58.7976 23.2775 59.0774 23.3264C59.6201 23.4298 60.1417 23.4815 60.6418 23.4815C61.6152 23.4815 62.3562 23.3092 62.865 22.9644C63.0687 22.8253 63.2324 22.6674 63.3558 22.4908C63.6427 22.5587 63.9487 22.5927 64.2736 22.5927C64.546 22.5927 64.8074 22.5665 65.0577 22.5141C65.0752 22.5353 65.0931 22.5561 65.1114 22.5767C65.3756 22.8673 65.7193 23.0689 66.1422 23.1813C66.0858 23.2698 66.0188 23.3494 65.9411 23.42C65.6655 23.6785 65.213 23.8079 64.5839 23.8079C63.7136 23.8079 62.9379 23.6613 62.2574 23.3683V24.9454C62.559 25.0746 62.9162 25.1781 63.3298 25.2556C63.7525 25.3332 64.1704 25.372 64.5839 25.372C65.9714 25.372 66.9925 25.0746 67.6477 24.48C68.1014 24.0736 68.3997 23.5545 68.5432 22.9227C68.7892 22.7904 69.0069 22.6233 69.1963 22.4215V23.0938H71.0852C71.65 23.3523 72.304 23.4816 73.0466 23.4816C73.5718 23.4816 74.0523 23.4169 74.4887 23.2876H74.744V23.2027C74.8535 23.1622 74.9599 23.1172 75.0634 23.0679C75.6407 22.7835 76.0845 22.3958 76.3948 21.9045C76.493 21.7506 76.576 21.5898 76.644 21.4221V23.2876H78.8159V19.7457C78.8159 19.4441 78.8115 19.22 78.8029 19.0734C79.044 18.7978 79.3585 18.6598 79.7461 18.6598C80.0477 18.6598 80.2634 18.7374 80.3926 18.8924C80.5218 19.0476 80.5866 19.2976 80.5866 19.6423V23.2876H82.7586V19.3191C82.7586 18.5348 82.5862 17.9359 82.2413 17.5222C81.8964 17.1 81.3148 16.8889 80.4958 16.8889C80.117 16.8889 79.7418 16.9621 79.3715 17.1086C79.0007 17.2551 78.6861 17.4576 78.4277 17.7162C78.2553 17.4404 78.0272 17.2336 77.7429 17.0956C77.4673 16.9578 77.0963 16.8889 76.631 16.8889C76.2521 16.8889 75.8942 16.9664 75.558 17.1215C75.4104 17.1859 75.2702 17.2627 75.1376 17.3519C75.1131 17.3396 75.0884 17.3274 75.0634 17.3155C74.9356 17.2526 74.8031 17.1966 74.6661 17.1476V17.0828H74.4685C74.0375 16.9535 73.5637 16.8889 73.0466 16.8889C72.4355 16.8889 71.8844 16.9791 71.3937 17.1597V16.8889H69.1185V20.7023C68.9896 20.9242 68.8313 21.1016 68.6428 21.2343V16.1939H66.4455V16.8144C65.8682 16.2715 65.1358 16 64.2476 16C63.6018 16 63.0282 16.1379 62.5288 16.4136C62.246 16.5647 61.9992 16.753 61.7882 16.9785C61.4052 16.9187 61.0358 16.8889 60.6801 16.8889C59.7998 16.8889 59.0955 17.0422 58.5687 17.3489C58.5462 17.3376 58.5235 17.3265 58.5006 17.3155C57.9232 17.031 57.2508 16.8889 56.4837 16.8889C56.4311 16.8889 56.379 16.8896 56.3272 16.8909C56.1359 16.7038 55.9177 16.5447 55.6723 16.4137C55.173 16.1379 54.5994 16 53.9535 16C53.0659 16 52.3329 16.2715 51.7555 16.8143V16.1939H49.5582V23.1098H48.3997V16H46.1116V25.0359L48.3997 25.0359L49.5582 25.0359V25.2298H51.8335V25.0359L52.3296 25.0359V23.1098ZM72.5591 18.7212C72.321 18.7865 72.1172 18.9039 71.9477 19.0735C71.6806 19.3407 71.5471 19.7112 71.5471 20.1852C71.5471 20.6592 71.6806 21.0341 71.9477 21.3099C72.1172 21.4742 72.321 21.5879 72.5591 21.6512V18.7212ZM64.4779 20.7023V17.8025C64.1773 17.8576 63.9238 17.9849 63.7179 18.1846C63.4336 18.4518 63.2914 18.8181 63.2914 19.2834C63.2914 19.7574 63.4336 20.1366 63.7179 20.421C63.9241 20.6209 64.178 20.7484 64.4791 20.8034C64.4783 20.77 64.4779 20.7363 64.4779 20.7023ZM57.7344 19.2689C57.7679 19.4851 57.8322 19.6743 57.9271 19.8362C57.939 19.8566 57.9515 19.8766 57.9645 19.8964C57.977 19.988 57.9832 20.0843 57.9832 20.1852C57.9832 20.6592 57.8454 21.0341 57.5697 21.3099C57.3027 21.577 56.9405 21.7106 56.4837 21.7106C56.426 21.7106 56.3698 21.7085 56.315 21.7042C56.5189 21.5049 56.6926 21.2754 56.8362 21.0156C57.1119 20.5071 57.2497 19.9297 57.2497 19.2834C57.2497 19.1239 57.2415 18.9692 57.2252 18.8194C57.3537 18.8843 57.4685 18.969 57.5697 19.0735C57.6315 19.1334 57.6864 19.1985 57.7344 19.2689ZM60.2066 21.0401C60.3692 21.0884 60.5185 21.1352 60.6547 21.1805C60.8958 21.2495 61.0595 21.3185 61.1455 21.3875C61.2407 21.4477 61.2876 21.5296 61.2876 21.633C61.2876 21.7623 61.219 21.8484 61.0812 21.8916C60.9434 21.9346 60.7234 21.9562 60.4217 21.9562C60.2319 21.9562 60.033 21.9426 59.825 21.9153L59.8318 21.9045C60.0023 21.6373 60.1273 21.3492 60.2066 21.0401ZM61.0364 18.4533L60.9903 18.453C60.6974 18.453 60.4693 18.4831 60.3055 18.5435C60.1417 18.5952 60.0602 18.69 60.0602 18.8279C60.0602 18.9572 60.1417 19.0563 60.3055 19.1252C60.4373 19.1806 60.6526 19.2473 60.9515 19.325L60.9514 19.2963C60.9514 18.9994 60.9798 18.7183 61.0364 18.4533ZM52.4281 20.5631C52.5127 20.6161 52.6006 20.6609 52.6918 20.6975C52.6687 20.5322 52.6572 20.3614 52.6572 20.1852C52.6572 19.5389 52.8123 18.9701 53.1226 18.4789C53.2885 18.2189 53.4893 17.9892 53.7251 17.7899C53.61 17.7687 53.488 17.758 53.3589 17.758C53.014 17.758 52.7037 17.8485 52.4281 18.0295C52.1523 18.2018 51.9539 18.4388 51.8335 18.7404V19.8392C51.9539 20.1409 52.1523 20.3821 52.4281 20.5631ZM20.6081 17.8151L20.7847 17.7778H35.4675V15.1111L40.9847 20.6284L40.9847 23.295L40.9847 25.318L38.9617 23.295H26.0882L20.6081 17.8151Z" fill="#FBF7EA"/>
</svg>
