<svg width="61" height="40" viewBox="0 0 61 40" fill="none" xmlns="http://www.w3.org/2000/svg">
<path fill-rule="evenodd" clip-rule="evenodd" d="M26.8367 40H20.7644C9.71871 40 0.764404 31.0457 0.764404 20C0.764404 8.95431 9.7187 5.09829e-06 20.7644 4.13264e-06L40.7644 0C51.8101 0 60.7644 8.9543 60.7644 20C60.7644 31.0457 51.8101 40 40.7644 40H33.2828C31.6252 40 30.0355 39.3415 28.8634 38.1694L26.7923 36.0983C26.089 35.3951 25.1352 35 24.1406 35H20.7644C12.4801 35 5.7644 28.2843 5.7644 20C5.7644 11.7157 12.4801 5 20.7644 5H40.7644C49.0487 5 55.7644 11.7157 55.7644 20C55.7644 28.2843 49.0487 35 40.7644 35H35.9605C34.3029 35 32.7132 34.3415 31.5411 33.1694L29.47 31.0983C28.7667 30.3951 27.8129 30 26.8183 30H20.7644C15.2416 30 10.7644 25.5229 10.7644 20C10.7644 14.4772 15.2416 10 20.7644 10H40.7644C46.2872 10 50.7644 14.4772 50.7644 20C50.7644 25.3129 46.6211 29.6582 41.3894 29.9808V30H39.0855C37.4279 30 35.8382 29.3415 34.6661 28.1694L32.595 26.0983C31.8917 25.3951 30.9379 25 29.9433 25H20.7644C18.003 25 15.7644 22.7614 15.7644 20C15.7644 17.2386 18.003 15 20.7644 15H40.7644C43.5258 15 45.7644 17.2386 45.7644 20C45.7644 22.7614 43.5258 25 40.7644 25H39.2999C38.6369 25 38.001 24.7366 37.5322 24.2678L35.7644 22.5H40.7644C42.1451 22.5 43.2644 21.3807 43.2644 20C43.2644 18.6193 42.1451 17.5 40.7644 17.5H20.7644C19.3837 17.5 18.2644 18.6193 18.2644 20C18.2644 21.3807 19.3837 22.5 20.7644 22.5H30.7644L30.8272 22.5628C32.1581 22.7529 33.401 23.3688 34.3627 24.3306L36.4338 26.4017C37.1371 27.1049 38.0909 27.5 39.0855 27.5H40.9148L40.9156 27.4985C44.9879 27.418 48.2644 24.0916 48.2644 20C48.2644 15.8579 44.9065 12.5 40.7644 12.5H20.7644C16.6223 12.5 13.2644 15.8579 13.2644 20C13.2644 24.1421 16.6223 27.5 20.7644 27.5H26.8183C28.4759 27.5 30.0656 28.1585 31.2377 29.3306L33.3088 31.4017C34.0121 32.1049 34.9659 32.5 35.9605 32.5H40.7644C47.668 32.5 53.2644 26.9036 53.2644 20C53.2644 13.0964 47.668 7.5 40.7644 7.5H20.7644C13.8608 7.5 8.2644 13.0964 8.2644 20C8.2644 26.9036 13.8608 32.5 20.7644 32.5H24.1406C25.7982 32.5 27.388 33.1585 28.5601 34.3306L30.6311 36.4017C31.3344 37.1049 32.2882 37.5 33.2828 37.5H40.7644C50.4294 37.5 58.2644 29.665 58.2644 20C58.2644 10.335 50.4294 2.5 40.7644 2.5H20.7644C11.0994 2.50001 3.2644 10.335 3.2644 20C3.2644 29.665 11.0994 37.5 20.7644 37.5H23.3012C23.9642 37.5 24.6001 37.7634 25.0689 38.2322L26.8367 40ZM58.2644 2.5C57.574 2.5 57.0144 1.94036 57.0144 1.25C57.0144 0.559648 57.574 3.49691e-06 58.2644 3.49691e-06H59.5144C60.2048 3.49691e-06 60.7644 0.559648 60.7644 1.25C60.7644 1.94036 60.2048 2.5 59.5144 2.5H58.2644Z" fill="#FBF7EA"/>
</svg>
