<svg width="160" height="40" viewBox="0 0 160 40" fill="none" xmlns="http://www.w3.org/2000/svg">
<path d="M4.68018 37.1H38.8802V2.90002H4.68018V37.1ZM32.2975 16.7094H25.0709V9.48269H32.2975V16.7094ZM11.2615 9.48269H18.4922V23.2907H32.2975V30.5174H11.2615V9.48269ZM61.1509 2.90002C57.7687 2.90002 54.4626 3.90293 51.6506 5.7819C48.8385 7.66088 46.6467 10.3315 45.3525 13.4562C44.0582 16.5808 43.7197 20.019 44.3794 23.336C45.0393 26.6531 46.6678 29.7 49.0593 32.0915C51.4507 34.4831 54.4977 36.1116 57.8147 36.7715C61.1319 37.4312 64.5701 37.0927 67.6947 35.7984C70.8194 34.5042 73.4899 32.3124 75.369 29.5003C77.2479 26.6882 78.2509 23.382 78.2509 20C78.2455 15.4664 76.4422 11.1201 73.2365 7.91436C70.0307 4.70862 65.6845 2.90532 61.1509 2.90002ZM61.1509 30.5174C59.0707 30.5174 57.0373 29.9006 55.3077 28.7448C53.5782 27.5892 52.2301 25.9467 51.4341 24.0248C50.6381 22.1031 50.4298 19.9884 50.8355 17.9482C51.2414 15.908 52.2431 14.034 53.7139 12.5631C55.1849 11.0923 57.0589 10.0906 59.099 9.68478C61.1391 9.27897 63.2538 9.48725 65.1757 10.2833C67.0974 11.0793 68.7401 12.4273 69.8957 14.157C71.0514 15.8864 71.6682 17.9199 71.6682 20C71.6639 22.7882 70.5545 25.4608 68.583 27.4323C66.6115 29.4038 63.9389 30.5131 61.1509 30.5174ZM139.443 2.90002C136.06 2.89977 132.754 3.90244 129.942 5.78125C127.13 7.66006 124.938 10.3306 123.644 13.4552C122.349 16.5798 122.01 20.0182 122.67 23.3352C123.33 26.6524 124.958 29.6995 127.35 32.0911C129.741 34.4827 132.788 36.1115 136.106 36.7714C139.422 37.4312 142.86 37.0927 145.986 35.7986C149.11 34.5043 151.78 32.3126 153.659 29.5004C155.539 26.6883 156.542 23.3822 156.542 20C156.536 15.4667 154.734 11.1205 151.528 7.91482C148.323 4.70913 143.976 2.90568 139.443 2.90002ZM139.443 30.5174C137.363 30.5176 135.33 29.901 133.599 28.7455C131.87 27.59 130.521 25.9475 129.725 24.0258C128.929 22.104 128.72 19.9892 129.126 17.949C129.532 15.9088 130.533 14.0347 132.004 12.5636C133.475 11.0926 135.35 10.0908 137.39 9.68488C139.43 9.27896 141.544 9.48716 143.466 10.2832C145.388 11.0791 147.031 12.4272 148.187 14.1568C149.342 15.8864 149.959 17.9199 149.959 20C149.955 22.7879 148.846 25.4603 146.874 27.4318C144.903 29.4032 142.231 30.5128 139.443 30.5174ZM100.296 2.90002C96.9141 2.90002 93.6079 3.90293 90.7959 5.7819C87.9838 7.66088 85.7921 10.3315 84.4978 13.4562C83.2035 16.5808 82.865 20.019 83.5247 23.336C84.1846 26.6531 85.8131 29.7 88.2046 32.0915C90.5961 34.4831 93.643 36.1116 96.9601 36.7715C100.277 37.4312 103.715 37.0927 106.84 35.7984C109.965 34.5042 112.635 32.3124 114.514 29.5003C116.393 26.6882 117.396 23.382 117.396 20C117.391 15.4664 115.588 11.1201 112.382 7.91436C109.176 4.70862 104.83 2.90532 100.296 2.90002ZM100.296 30.5174C98.3581 30.5183 96.4575 29.9838 94.8041 28.9727C93.1507 27.9616 91.8087 26.5135 90.9265 24.7879C90.0443 23.0623 89.6559 21.1264 89.8045 19.1942C89.953 17.2618 90.6325 15.408 91.7681 13.8375C92.9037 12.267 94.4511 11.0408 96.2395 10.2943C98.0281 9.54776 99.9881 9.30992 101.903 9.60701C103.818 9.90412 105.614 10.7246 107.092 11.9779C108.571 13.2312 109.674 14.8687 110.28 16.7094H100.296V23.2907H110.28C109.586 25.3911 108.248 27.2196 106.455 28.5167C104.663 29.8139 102.508 30.5138 100.296 30.5174Z" fill="#FBF7EA"/>
</svg>
