<svg width="231" height="220" viewBox="0 0 231 220" fill="none" xmlns="http://www.w3.org/2000/svg">
<path d="M2.33523 12V8.93182C2.33523 8 2.5 7.01136 2.82955 5.96591C3.17045 4.90909 3.65909 3.89205 4.29545 2.91477C4.94318 1.92614 5.72159 1.06818 6.63068 0.340908L8.30114 1.78977C7.4375 2.78977 6.71023 3.90341 6.11932 5.13068C5.53977 6.34659 5.25 7.59659 5.25 8.88068V12H2.33523ZM15.9077 1.09091V4.15909C15.9077 5.09091 15.7372 6.08523 15.3963 7.14205C15.0668 8.1875 14.5781 9.20455 13.9304 10.1932C13.294 11.1705 12.5213 12.0227 11.6122 12.75L9.95881 11.3011C10.8111 10.3011 11.5327 9.19318 12.1236 7.97727C12.7145 6.75 13.0099 5.49432 13.0099 4.21023V1.09091H15.9077ZM21.3494 36L19.5767 22.9091H21.1705L22.4744 33.7074H22.5852L27.4773 22.9091H29.0881L30.358 33.6818H30.4773L35.3693 22.9091H36.9886L30.8523 36H29.2841L27.9545 25.2869H27.7926L22.9176 36H21.3494ZM42.4581 36.2727C41.3104 36.2727 40.3445 35.983 39.5604 35.4034C38.7763 34.8182 38.2223 34.0085 37.8984 32.9744C37.5746 31.9403 37.5206 30.7472 37.7365 29.3949C37.9524 28.0767 38.3814 26.9176 39.0234 25.9176C39.6712 24.9119 40.4666 24.1307 41.4098 23.5739C42.353 23.0114 43.3786 22.7301 44.4865 22.7301C45.6399 22.7301 46.6058 23.0227 47.3842 23.608C48.1683 24.1932 48.7223 25.0028 49.0462 26.0369C49.3757 27.071 49.4325 28.267 49.2166 29.625C49.0007 30.9375 48.5689 32.0938 47.9212 33.0938C47.2734 34.0881 46.478 34.8665 45.5348 35.429C44.5973 35.9915 43.5717 36.2727 42.4581 36.2727ZM42.4751 34.8835C43.407 34.8835 44.2365 34.6364 44.9638 34.142C45.6967 33.642 46.3018 32.9773 46.7791 32.1477C47.2564 31.3125 47.5774 30.3949 47.7422 29.3949C47.8956 28.4403 47.8786 27.5625 47.6911 26.7614C47.5036 25.9602 47.1428 25.3182 46.6087 24.8352C46.0746 24.3523 45.3643 24.1108 44.478 24.1108C43.5518 24.1108 42.7223 24.3636 41.9893 24.8693C41.2564 25.3693 40.6513 26.0398 40.174 26.8807C39.6967 27.7159 39.3786 28.6307 39.2195 29.625C39.0604 30.5852 39.0717 31.4631 39.2536 32.2585C39.4411 33.054 39.8018 33.6903 40.3359 34.1676C40.8757 34.6449 41.5888 34.8835 42.4751 34.8835ZM51.4901 36L53.6719 22.9091H55.1463L54.8054 24.9205H54.9162C55.2798 24.2614 55.8224 23.7301 56.544 23.3267C57.2713 22.9176 58.0469 22.7131 58.8707 22.7131C58.9957 22.7131 59.1349 22.7159 59.2884 22.7216C59.4418 22.7216 59.5696 22.7273 59.6719 22.7386L59.4077 24.2812C59.3395 24.2699 59.2202 24.2528 59.0497 24.2301C58.8849 24.2074 58.7003 24.196 58.4957 24.196C57.8139 24.196 57.1832 24.3409 56.6037 24.6307C56.0298 24.9148 55.5469 25.3097 55.1548 25.8153C54.7685 26.321 54.5185 26.8977 54.4048 27.5455L53.0071 36H51.4901ZM62.267 31.0568L62.5739 29.054H62.9148L70.0653 22.9091H72.0085L64.9432 28.9773L64.8068 29.0028L62.267 31.0568ZM60.0682 36L62.9659 18.5455H64.483L61.5852 36H60.0682ZM68.25 36L64.0312 29.2756L65.267 28.2273L70.1676 36H68.25ZM72.6946 36L74.8764 22.9091H76.402L74.2202 36H72.6946ZM76.1889 20.6335C75.8707 20.6335 75.6009 20.5256 75.3793 20.3097C75.1634 20.0937 75.0582 19.8324 75.0639 19.5256C75.0753 19.2358 75.1918 18.9858 75.4134 18.7756C75.6406 18.5597 75.9077 18.4517 76.2145 18.4517C76.5327 18.4517 76.8026 18.5625 77.0241 18.7841C77.2457 19 77.3509 19.2614 77.3395 19.5682C77.3338 19.858 77.2173 20.108 76.9901 20.3182C76.7628 20.5284 76.4957 20.6335 76.1889 20.6335ZM81.1044 27.8182L79.7493 36H78.2322L80.4141 22.9091H81.8885L81.5476 24.9631H81.6839C82.093 24.2926 82.6584 23.7557 83.38 23.3523C84.1072 22.9432 84.951 22.7386 85.9112 22.7386C86.7862 22.7386 87.5249 22.9233 88.1271 23.2926C88.7351 23.6562 89.1669 24.1932 89.4226 24.9034C89.6839 25.6136 89.7294 26.4858 89.5589 27.5199L88.1357 36H86.6186L88.0163 27.6136C88.1925 26.5455 88.0362 25.6989 87.5476 25.0739C87.0646 24.4432 86.3175 24.1278 85.3061 24.1278C84.6186 24.1278 83.9794 24.2756 83.3885 24.571C82.8033 24.8665 82.3089 25.2926 81.9055 25.8494C81.5021 26.4006 81.2351 27.0568 81.1044 27.8182ZM96.3068 41.1818C95.4148 41.1818 94.6506 41.0653 94.0142 40.8324C93.3778 40.6051 92.8608 40.2926 92.4631 39.8949C92.071 39.4972 91.7841 39.0511 91.6023 38.5568L92.983 37.7472C93.108 38.0767 93.2983 38.4006 93.554 38.7188C93.8097 39.0369 94.1705 39.2983 94.6364 39.5028C95.1023 39.7131 95.7131 39.8182 96.4688 39.8182C97.6222 39.8182 98.6136 39.5256 99.4432 38.9403C100.273 38.3608 100.79 37.4631 100.994 36.2472L101.455 33.2983H101.318C101.085 33.696 100.773 34.0937 100.381 34.4915C99.9886 34.8835 99.5028 35.2102 98.9233 35.4716C98.3494 35.733 97.6705 35.8636 96.8864 35.8636C95.8409 35.8636 94.9545 35.6051 94.2273 35.0881C93.5 34.571 92.9858 33.8324 92.6847 32.8722C92.3835 31.9062 92.3466 30.7557 92.5739 29.4205C92.7898 28.0966 93.2045 26.9318 93.8182 25.9261C94.4375 24.9205 95.1989 24.1364 96.1023 23.5739C97.0114 23.0114 98.0057 22.7301 99.0852 22.7301C99.8864 22.7301 100.528 22.8722 101.011 23.1562C101.494 23.4347 101.861 23.7812 102.111 24.196C102.366 24.6108 102.551 25.0142 102.665 25.4062H102.818L103.227 22.9091H104.71L102.494 36.3409C102.307 37.4489 101.92 38.3608 101.335 39.0767C100.75 39.7926 100.023 40.321 99.1534 40.6619C98.2898 41.0085 97.3409 41.1818 96.3068 41.1818ZM97.2273 34.4744C98.0682 34.4744 98.8239 34.2727 99.4943 33.8693C100.17 33.4602 100.736 32.8778 101.19 32.1222C101.651 31.3608 101.966 30.4517 102.136 29.3949C102.307 28.3722 102.298 27.4659 102.111 26.6761C101.929 25.8807 101.574 25.2557 101.045 24.8011C100.523 24.3409 99.8352 24.1108 98.983 24.1108C98.1023 24.1108 97.3239 24.3466 96.6477 24.8182C95.9773 25.2898 95.4233 25.9261 94.9858 26.7273C94.554 27.5227 94.2557 28.4119 94.0909 29.3949C93.9318 30.3949 93.9375 31.2784 94.108 32.0455C94.2841 32.8068 94.6307 33.4034 95.1477 33.8352C95.6648 34.2614 96.358 34.4744 97.2273 34.4744ZM116.201 36L114.428 22.9091H116.022L117.326 33.7074H117.437L122.329 22.9091H123.94L125.21 33.6818H125.329L130.221 22.9091H131.84L125.704 36H124.136L122.806 25.2869H122.644L117.769 36H116.201ZM132.624 36L134.806 22.9091H136.332L134.15 36H132.624ZM136.119 20.6335C135.8 20.6335 135.531 20.5256 135.309 20.3097C135.093 20.0937 134.988 19.8324 134.994 19.5256C135.005 19.2358 135.121 18.9858 135.343 18.7756C135.57 18.5597 135.837 18.4517 136.144 18.4517C136.462 18.4517 136.732 18.5625 136.954 18.7841C137.175 19 137.281 19.2614 137.269 19.5682C137.263 19.858 137.147 20.108 136.92 20.3182C136.692 20.5284 136.425 20.6335 136.119 20.6335ZM145.5 22.9091L145.287 24.2301H139.031L139.253 22.9091H145.5ZM141.716 19.7727H143.241L141.111 32.5824C141.02 33.1278 141.043 33.5568 141.179 33.8693C141.315 34.1761 141.526 34.3949 141.81 34.5256C142.094 34.6506 142.406 34.7131 142.747 34.7131C142.946 34.7131 143.116 34.7017 143.259 34.679C143.406 34.6506 143.537 34.6222 143.651 34.5938L143.761 35.9659C143.597 36.0227 143.401 36.0739 143.173 36.1193C142.946 36.1705 142.673 36.196 142.355 36.196C141.798 36.196 141.284 36.0739 140.812 35.8295C140.341 35.5852 139.983 35.2216 139.739 34.7386C139.494 34.2557 139.429 33.6562 139.543 32.9403L141.716 19.7727ZM149.917 27.8182L148.562 36H147.045L149.942 18.5455H151.46L150.403 24.9631H150.539C150.948 24.2812 151.511 23.7415 152.227 23.3438C152.942 22.9403 153.798 22.7386 154.792 22.7386C155.673 22.7386 156.417 22.9205 157.025 23.2841C157.638 23.6477 158.073 24.1847 158.329 24.8949C158.59 25.6051 158.636 26.4801 158.465 27.5199L157.042 36H155.516L156.914 27.6136C157.09 26.5341 156.931 25.6847 156.437 25.0653C155.948 24.4403 155.198 24.1278 154.187 24.1278C153.494 24.1278 152.846 24.2756 152.244 24.571C151.647 24.8665 151.141 25.2926 150.727 25.8494C150.317 26.4006 150.048 27.0568 149.917 27.8182ZM176.932 30.9972L178.287 22.9091H179.804L177.622 36H176.105L176.463 33.8267H176.352C175.943 34.4972 175.364 35.0568 174.614 35.5057C173.869 35.9489 173.017 36.1705 172.057 36.1705C171.222 36.1705 170.509 35.9886 169.918 35.625C169.332 35.2557 168.915 34.7159 168.665 34.0057C168.415 33.2955 168.375 32.4233 168.545 31.3892L169.969 22.9091H171.486L170.088 31.2955C169.923 32.3182 170.088 33.142 170.582 33.767C171.082 34.3864 171.804 34.696 172.747 34.696C173.338 34.696 173.929 34.554 174.52 34.2699C175.116 33.9858 175.634 33.571 176.071 33.0256C176.514 32.4744 176.801 31.7983 176.932 30.9972ZM192.138 25.7812L190.681 26.1562C190.607 25.7642 190.471 25.4119 190.272 25.0994C190.079 24.7812 189.798 24.5312 189.428 24.3494C189.065 24.1619 188.587 24.0682 187.996 24.0682C187.11 24.0682 186.346 24.2841 185.704 24.7159C185.062 25.142 184.687 25.6875 184.579 26.3523C184.488 26.9091 184.604 27.3608 184.928 27.7074C185.258 28.054 185.809 28.3267 186.582 28.5256L188.491 29.0114C189.548 29.2841 190.3 29.7102 190.749 30.2898C191.204 30.8693 191.36 31.6023 191.218 32.4886C191.093 33.2273 190.778 33.8807 190.272 34.4489C189.772 35.017 189.13 35.4631 188.346 35.7869C187.567 36.1108 186.698 36.2727 185.738 36.2727C184.448 36.2727 183.434 35.983 182.695 35.4034C181.962 34.8239 181.57 33.9886 181.519 32.8977L183.045 32.5568C183.09 33.3295 183.354 33.9148 183.837 34.3125C184.326 34.7102 185.013 34.9091 185.9 34.9091C186.911 34.9091 187.761 34.679 188.448 34.2188C189.136 33.7585 189.531 33.1903 189.633 32.5142C189.729 31.9801 189.63 31.5369 189.335 31.1847C189.045 30.8324 188.55 30.571 187.852 30.4006L185.815 29.8892C184.718 29.6108 183.942 29.1761 183.488 28.5852C183.039 27.9886 182.888 27.2528 183.036 26.3778C183.156 25.6562 183.457 25.0227 183.94 24.4773C184.423 23.9318 185.033 23.5057 185.772 23.1989C186.511 22.8864 187.317 22.7301 188.192 22.7301C189.397 22.7301 190.315 23.0028 190.945 23.5483C191.576 24.0881 191.974 24.8324 192.138 25.7812ZM196.841 33.6136L196.517 34.5256C196.313 35.1392 196.063 35.8125 195.767 36.5455C195.472 37.2841 195.179 37.9858 194.889 38.6506C194.599 39.321 194.355 39.858 194.156 40.2614H192.989C193.119 39.875 193.29 39.3835 193.5 38.7869C193.716 38.1903 193.946 37.5312 194.19 36.8097C194.435 36.0881 194.67 35.3409 194.898 34.5682L195.188 33.6136H196.841ZM197.028 26.2244C196.688 26.2244 196.401 26.1051 196.168 25.8665C195.94 25.6278 195.827 25.3381 195.827 24.9972C195.827 24.6562 195.952 24.3722 196.202 24.1449C196.452 23.9119 196.744 23.7955 197.08 23.7955C197.415 23.7955 197.702 23.9148 197.94 24.1534C198.179 24.3864 198.293 24.6676 198.281 24.9972C198.276 25.2244 198.213 25.4318 198.094 25.6193C197.98 25.8068 197.83 25.9545 197.642 26.0625C197.46 26.1705 197.256 26.2244 197.028 26.2244ZM3.47727 80V53.8182H5.8679V77.8523H18.3452V80H3.47727ZM23.2798 80V60.3636H25.5682V80H23.2798ZM24.4432 56.9886C23.9744 56.9886 23.5739 56.831 23.2415 56.5156C22.9091 56.1918 22.7429 55.804 22.7429 55.3523C22.7429 54.9006 22.9091 54.517 23.2415 54.2017C23.5739 53.8778 23.9744 53.7159 24.4432 53.7159C24.9119 53.7159 25.3125 53.8778 25.6449 54.2017C25.9773 54.517 26.1435 54.9006 26.1435 55.3523C26.1435 55.804 25.9773 56.1918 25.6449 56.5156C25.3125 56.831 24.9119 56.9886 24.4432 56.9886ZM33.6573 72.5852L33.6317 69.6065H34.1431L43.3477 60.3636H46.2241L37.1346 69.4659L36.93 69.5043L33.6573 72.5852ZM31.5863 80V53.8182H33.8619V80H31.5863ZM43.8207 80L35.8434 69.9134L37.4798 68.3409L46.7354 80H43.8207ZM57.6307 80.4091C55.7983 80.4091 54.2131 79.983 52.875 79.1307C51.5369 78.2699 50.5014 77.081 49.7685 75.5639C49.044 74.0384 48.6818 72.2827 48.6818 70.2969C48.6818 68.3196 49.044 66.5639 49.7685 65.0298C50.5014 63.4872 51.5114 62.2812 52.7983 61.4119C54.0938 60.5341 55.5895 60.0952 57.2855 60.0952C58.3509 60.0952 59.3778 60.2912 60.3665 60.6832C61.3551 61.0668 62.2415 61.6591 63.0256 62.4602C63.8182 63.2528 64.4446 64.2543 64.9048 65.4645C65.3651 66.6662 65.5952 68.0895 65.5952 69.7344V70.8594H50.2543V68.8523H63.2685C63.2685 67.5909 63.0128 66.4574 62.5014 65.4517C61.9986 64.4375 61.2955 63.6364 60.392 63.0483C59.4972 62.4602 58.4616 62.1662 57.2855 62.1662C56.0412 62.1662 54.946 62.4986 54 63.1634C53.054 63.8281 52.3125 64.706 51.7756 65.7969C51.2472 66.8878 50.9787 68.081 50.9702 69.3764V70.5781C50.9702 72.1378 51.2386 73.5014 51.7756 74.669C52.321 75.8281 53.0923 76.7273 54.0895 77.3665C55.0866 78.0057 56.267 78.3253 57.6307 78.3253C58.5597 78.3253 59.3736 78.1804 60.0724 77.8906C60.7798 77.6009 61.3722 77.2131 61.8494 76.7273C62.3352 76.233 62.7017 75.6918 62.9489 75.1037L65.1094 75.8068C64.8111 76.6335 64.321 77.3963 63.6392 78.0952C62.9659 78.794 62.1222 79.3565 61.108 79.7827C60.1023 80.2003 58.9432 80.4091 57.6307 80.4091ZM88.8782 80H81.2077V53.8182H89.3384C91.8356 53.8182 93.9705 54.3381 95.7433 55.3778C97.5245 56.4176 98.8881 57.9091 99.8342 59.8523C100.78 61.7955 101.253 64.1264 101.253 66.8452C101.253 69.5895 100.767 71.946 99.7958 73.9148C98.8327 75.875 97.4265 77.3793 95.5771 78.4276C93.7362 79.4759 91.5032 80 88.8782 80ZM83.5984 77.8523H88.7376C90.9876 77.8523 92.8711 77.4091 94.3881 76.5227C95.9052 75.6364 97.043 74.3707 97.8015 72.7259C98.56 71.081 98.9393 69.1207 98.9393 66.8452C98.9308 64.5866 98.5558 62.6435 97.8143 61.0156C97.0813 59.3878 95.9904 58.1392 94.5415 57.2699C93.1012 56.4006 91.32 55.9659 89.1978 55.9659H83.5984V77.8523ZM112.059 80.4474C110.874 80.4474 109.792 80.2173 108.812 79.7571C107.832 79.2884 107.052 78.6151 106.472 77.7372C105.893 76.8509 105.603 75.777 105.603 74.5156C105.603 73.544 105.786 72.7259 106.153 72.0611C106.519 71.3963 107.039 70.8509 107.712 70.4247C108.386 69.9986 109.183 69.6619 110.103 69.4148C111.023 69.1676 112.038 68.9759 113.146 68.8395C114.245 68.7031 115.174 68.5838 115.933 68.4815C116.7 68.3793 117.283 68.2173 117.684 67.9957C118.085 67.7741 118.285 67.4162 118.285 66.9219V66.4616C118.285 65.1236 117.884 64.071 117.083 63.304C116.29 62.5284 115.148 62.1406 113.657 62.1406C112.242 62.1406 111.087 62.4517 110.192 63.0739C109.306 63.696 108.684 64.429 108.326 65.2727L106.165 64.4929C106.609 63.419 107.222 62.5625 108.006 61.9233C108.79 61.2756 109.668 60.8111 110.64 60.5298C111.612 60.2401 112.596 60.0952 113.593 60.0952C114.343 60.0952 115.123 60.1932 115.933 60.3892C116.751 60.5852 117.509 60.9261 118.208 61.4119C118.907 61.8892 119.474 62.5582 119.908 63.419C120.343 64.2713 120.56 65.3537 120.56 66.6662V80H118.285V76.8935H118.144C117.871 77.473 117.467 78.0355 116.93 78.581C116.393 79.1264 115.719 79.5739 114.91 79.9233C114.1 80.2727 113.15 80.4474 112.059 80.4474ZM112.366 78.3636C113.576 78.3636 114.624 78.0952 115.511 77.5582C116.397 77.0213 117.079 76.3097 117.556 75.4233C118.042 74.5284 118.285 73.544 118.285 72.4702V69.6321C118.114 69.794 117.829 69.9389 117.428 70.0668C117.036 70.1946 116.58 70.3097 116.06 70.4119C115.549 70.5057 115.038 70.5866 114.526 70.6548C114.015 70.723 113.555 70.7827 113.146 70.8338C112.038 70.9702 111.092 71.1832 110.308 71.473C109.523 71.7628 108.923 72.1634 108.505 72.6747C108.087 73.1776 107.879 73.8253 107.879 74.6179C107.879 75.8111 108.305 76.7358 109.157 77.392C110.009 78.0398 111.079 78.3636 112.366 78.3636ZM128.889 67.7273V80H126.614V60.3636H128.825V63.4446H129.03C129.49 62.4389 130.206 61.6335 131.178 61.0284C132.158 60.4148 133.368 60.108 134.808 60.108C136.129 60.108 137.288 60.3849 138.286 60.9389C139.291 61.4844 140.071 62.2898 140.625 63.3551C141.188 64.4205 141.469 65.7287 141.469 67.2798V80H139.193V67.4205C139.193 65.8097 138.741 64.5355 137.838 63.598C136.943 62.6605 135.741 62.1918 134.233 62.1918C133.202 62.1918 132.286 62.4134 131.484 62.8565C130.683 63.2997 130.048 63.9389 129.58 64.7741C129.119 65.6009 128.889 66.5852 128.889 67.7273ZM155.132 80.4091C153.376 80.4091 151.846 79.9702 150.542 79.0923C149.247 78.2145 148.241 77.0128 147.525 75.4872C146.809 73.9616 146.451 72.223 146.451 70.2713C146.451 68.3026 146.814 66.5511 147.538 65.017C148.271 63.483 149.285 62.2812 150.581 61.4119C151.876 60.5341 153.38 60.0952 155.093 60.0952C156.406 60.0952 157.595 60.3509 158.66 60.8622C159.725 61.3651 160.603 62.0767 161.294 62.9972C161.993 63.9091 162.431 64.9744 162.61 66.1932H160.309C160.071 65.0852 159.495 64.1392 158.583 63.3551C157.68 62.5625 156.529 62.1662 155.132 62.1662C153.879 62.1662 152.771 62.5071 151.808 63.1889C150.845 63.8622 150.091 64.804 149.545 66.0142C149.008 67.2159 148.74 68.6094 148.74 70.1946C148.74 71.7884 149.004 73.1989 149.532 74.4261C150.061 75.6449 150.802 76.5994 151.757 77.2898C152.72 77.9801 153.845 78.3253 155.132 78.3253C156.001 78.3253 156.794 78.1634 157.51 77.8395C158.234 77.5071 158.839 77.0384 159.325 76.4332C159.819 75.8281 160.152 75.108 160.322 74.2727H162.623C162.453 75.4574 162.031 76.5142 161.358 77.4432C160.693 78.3636 159.828 79.0881 158.762 79.6165C157.706 80.1449 156.495 80.4091 155.132 80.4091ZM167.526 80V60.3636H169.814V80H167.526ZM168.689 56.9886C168.221 56.9886 167.82 56.831 167.488 56.5156C167.155 56.1918 166.989 55.804 166.989 55.3523C166.989 54.9006 167.155 54.517 167.488 54.2017C167.82 53.8778 168.221 53.7159 168.689 53.7159C169.158 53.7159 169.559 53.8778 169.891 54.2017C170.223 54.517 170.39 54.9006 170.39 55.3523C170.39 55.804 170.223 56.1918 169.891 56.5156C169.559 56.831 169.158 56.9886 168.689 56.9886ZM178.108 67.7273V80H175.832V60.3636H178.044V63.4446H178.249C178.709 62.4389 179.425 61.6335 180.396 61.0284C181.376 60.4148 182.587 60.108 184.027 60.108C185.348 60.108 186.507 60.3849 187.504 60.9389C188.51 61.4844 189.29 62.2898 189.844 63.3551C190.406 64.4205 190.688 65.7287 190.688 67.2798V80H188.412V67.4205C188.412 65.8097 187.96 64.5355 187.057 63.598C186.162 62.6605 184.96 62.1918 183.452 62.1918C182.42 62.1918 181.504 62.4134 180.703 62.8565C179.902 63.2997 179.267 63.9389 178.798 64.7741C178.338 65.6009 178.108 66.5852 178.108 67.7273ZM204.172 87.7727C202.833 87.7727 201.662 87.598 200.656 87.2486C199.65 86.9077 198.802 86.4389 198.112 85.8423C197.422 85.2457 196.885 84.5767 196.501 83.8352L198.368 82.608C198.649 83.1023 199.024 83.5881 199.493 84.0653C199.97 84.5426 200.588 84.9389 201.346 85.2543C202.113 85.5696 203.055 85.7273 204.172 85.7273C205.91 85.7273 207.312 85.2926 208.377 84.4233C209.451 83.554 209.988 82.2031 209.988 80.3707V75.9474H209.784C209.52 76.544 209.14 77.1406 208.646 77.7372C208.152 78.3253 207.504 78.8153 206.703 79.2074C205.91 79.5994 204.926 79.7955 203.75 79.7955C202.181 79.7955 200.788 79.4077 199.569 78.6321C198.359 77.8565 197.404 76.7486 196.706 75.3082C196.015 73.8594 195.67 72.1335 195.67 70.1307C195.67 68.1449 196.007 66.3977 196.68 64.8892C197.362 63.3807 198.312 62.2045 199.531 61.3608C200.75 60.517 202.169 60.0952 203.788 60.0952C204.99 60.0952 205.987 60.3082 206.779 60.7344C207.572 61.152 208.207 61.6719 208.684 62.294C209.17 62.9162 209.549 63.5213 209.822 64.1094H210.052V60.3636H212.277V80.5114C212.277 82.1733 211.923 83.5412 211.216 84.6151C210.508 85.6889 209.545 86.4815 208.326 86.9929C207.108 87.5128 205.723 87.7727 204.172 87.7727ZM204.018 77.7116C205.279 77.7116 206.358 77.4091 207.252 76.804C208.147 76.1903 208.833 75.3125 209.311 74.1705C209.788 73.0284 210.027 71.669 210.027 70.0923C210.027 68.5582 209.792 67.1989 209.324 66.0142C208.855 64.821 208.173 63.8835 207.278 63.2017C206.392 62.5114 205.305 62.1662 204.018 62.1662C202.706 62.1662 201.598 62.5199 200.694 63.2273C199.791 63.9347 199.109 64.8892 198.649 66.0909C198.189 67.2841 197.958 68.6179 197.958 70.0923C197.958 71.5923 198.193 72.9176 198.662 74.0682C199.13 75.2102 199.816 76.1051 200.72 76.7528C201.623 77.392 202.723 77.7116 204.018 77.7116ZM8.02841 124L0.856534 97.8182H3.28551L9.21733 120.331H9.42188L15.3537 97.8182H18.1151L24.0469 120.331H24.2514L30.1832 97.8182H32.625L25.4531 124H22.8963L16.8239 101.794H16.6577L10.5852 124H8.02841ZM36.4986 124V104.364H38.7869V124H36.4986ZM37.6619 100.989C37.1932 100.989 36.7926 100.831 36.4602 100.516C36.1278 100.192 35.9616 99.804 35.9616 99.3523C35.9616 98.9006 36.1278 98.517 36.4602 98.2017C36.7926 97.8778 37.1932 97.7159 37.6619 97.7159C38.1307 97.7159 38.5313 97.8778 38.8636 98.2017C39.196 98.517 39.3622 98.9006 39.3622 99.3523C39.3622 99.804 39.196 100.192 38.8636 100.516C38.5313 100.831 38.1307 100.989 37.6619 100.989ZM57.9982 108.672L55.9144 109.26C55.7099 108.672 55.4201 108.139 55.0451 107.662C54.6701 107.185 54.18 106.805 53.5749 106.524C52.9783 106.243 52.2369 106.102 51.3505 106.102C50.021 106.102 48.93 106.418 48.0778 107.048C47.2255 107.679 46.7994 108.493 46.7994 109.49C46.7994 110.334 47.0891 111.02 47.6687 111.548C48.2567 112.068 49.1602 112.482 50.3789 112.788L53.3448 113.517C54.9897 113.918 56.2212 114.553 57.0394 115.422C57.8661 116.291 58.2795 117.382 58.2795 118.695C58.2795 119.803 57.9727 120.787 57.359 121.648C56.7454 122.509 55.8888 123.186 54.7894 123.68C53.6985 124.166 52.4329 124.409 50.9925 124.409C49.0749 124.409 47.494 123.979 46.2496 123.118C45.0053 122.249 44.2085 120.996 43.859 119.359L46.0451 118.822C46.3263 119.99 46.8761 120.872 47.6942 121.469C48.521 122.065 49.6076 122.364 50.9542 122.364C52.4627 122.364 53.6687 122.027 54.5721 121.354C55.4755 120.672 55.9272 119.82 55.9272 118.797C55.9272 118.004 55.663 117.339 55.1346 116.803C54.6062 116.257 53.805 115.857 52.7312 115.601L49.5224 114.834C47.8178 114.425 46.5565 113.777 45.7383 112.891C44.9201 112.004 44.511 110.905 44.511 109.592C44.511 108.51 44.805 107.56 45.3931 106.741C45.9812 105.915 46.7908 105.267 47.8221 104.798C48.8533 104.33 50.0295 104.095 51.3505 104.095C53.1488 104.095 54.5849 104.504 55.6587 105.322C56.7411 106.132 57.521 107.249 57.9982 108.672ZM71.201 124.409C69.3686 124.409 67.7834 123.983 66.4453 123.131C65.1072 122.27 64.0717 121.081 63.3388 119.564C62.6143 118.038 62.2521 116.283 62.2521 114.297C62.2521 112.32 62.6143 110.564 63.3388 109.03C64.0717 107.487 65.0817 106.281 66.3686 105.412C67.6641 104.534 69.1598 104.095 70.8558 104.095C71.9212 104.095 72.9482 104.291 73.9368 104.683C74.9254 105.067 75.8118 105.659 76.5959 106.46C77.3885 107.253 78.0149 108.254 78.4751 109.464C78.9354 110.666 79.1655 112.089 79.1655 113.734V114.859H63.8246V112.852H76.8388C76.8388 111.591 76.5831 110.457 76.0717 109.452C75.5689 108.437 74.8658 107.636 73.9624 107.048C73.0675 106.46 72.032 106.166 70.8558 106.166C69.6115 106.166 68.5163 106.499 67.5703 107.163C66.6243 107.828 65.8828 108.706 65.3459 109.797C64.8175 110.888 64.549 112.081 64.5405 113.376V114.578C64.5405 116.138 64.8089 117.501 65.3459 118.669C65.8913 119.828 66.6626 120.727 67.6598 121.366C68.657 122.006 69.8374 122.325 71.201 122.325C72.13 122.325 72.9439 122.18 73.6428 121.891C74.3501 121.601 74.9425 121.213 75.4197 120.727C75.9055 120.233 76.272 119.692 76.5192 119.104L78.6797 119.807C78.3814 120.634 77.8913 121.396 77.2095 122.095C76.5362 122.794 75.6925 123.357 74.6783 123.783C73.6726 124.2 72.5135 124.409 71.201 124.409ZM86.4556 97.8182V124H84.18V97.8182H86.4556ZM94.0621 131.364C93.6104 131.364 93.1886 131.321 92.7965 131.236C92.4045 131.151 92.0934 131.057 91.8633 130.955L92.4769 128.947C93.2525 129.186 93.9428 129.271 94.5479 129.203C95.1531 129.143 95.69 128.871 96.1587 128.385C96.6275 127.908 97.0451 127.175 97.4116 126.186L98.1275 124.192L90.9045 104.364H93.3718L99.2014 120.996H99.3803L105.21 104.364H107.677L99.3675 127.107C99.0181 128.053 98.5877 128.841 98.0763 129.472C97.565 130.111 96.9727 130.584 96.2994 130.891C95.6346 131.206 94.8888 131.364 94.0621 131.364ZM123.162 106.545V124H121.568V106.545H123.162ZM129.004 115.818V124H127.487V110.909H128.962V112.963H129.098C129.405 112.293 129.882 111.756 130.53 111.352C131.183 110.943 131.99 110.739 132.95 110.739C133.831 110.739 134.604 110.923 135.268 111.293C135.939 111.656 136.459 112.193 136.828 112.903C137.203 113.614 137.391 114.486 137.391 115.52V124H135.874V115.614C135.874 114.54 135.572 113.69 134.97 113.065C134.374 112.44 133.572 112.128 132.567 112.128C131.879 112.128 131.268 112.276 130.734 112.571C130.2 112.866 129.777 113.293 129.464 113.849C129.158 114.401 129.004 115.057 129.004 115.818ZM151.4 99.9659V97.8182H170.384V99.9659H162.087V124H159.697V99.9659H151.4ZM177.569 111.727V124H175.293V97.8182H177.569V107.445H177.773C178.234 106.43 178.945 105.621 179.908 105.016C180.88 104.411 182.107 104.108 183.59 104.108C184.92 104.108 186.087 104.381 187.093 104.926C188.099 105.472 188.883 106.277 189.445 107.342C190.008 108.408 190.289 109.72 190.289 111.28V124H188.001V111.42C188.001 109.801 187.549 108.527 186.646 107.598C185.751 106.661 184.54 106.192 183.015 106.192C181.967 106.192 181.033 106.413 180.215 106.857C179.397 107.3 178.749 107.939 178.272 108.774C177.803 109.601 177.569 110.585 177.569 111.727ZM204.221 124.409C202.388 124.409 200.803 123.983 199.465 123.131C198.127 122.27 197.091 121.081 196.358 119.564C195.634 118.038 195.272 116.283 195.272 114.297C195.272 112.32 195.634 110.564 196.358 109.03C197.091 107.487 198.101 106.281 199.388 105.412C200.684 104.534 202.179 104.095 203.875 104.095C204.941 104.095 205.968 104.291 206.956 104.683C207.945 105.067 208.831 105.659 209.615 106.46C210.408 107.253 211.034 108.254 211.495 109.464C211.955 110.666 212.185 112.089 212.185 113.734V114.859H196.844V112.852H209.858C209.858 111.591 209.603 110.457 209.091 109.452C208.588 108.437 207.885 107.636 206.982 107.048C206.087 106.46 205.051 106.166 203.875 106.166C202.631 106.166 201.536 106.499 200.59 107.163C199.644 107.828 198.902 108.706 198.365 109.797C197.837 110.888 197.569 112.081 197.56 113.376V114.578C197.56 116.138 197.828 117.501 198.365 118.669C198.911 119.828 199.682 120.727 200.679 121.366C201.676 122.006 202.857 122.325 204.221 122.325C205.15 122.325 205.963 122.18 206.662 121.891C207.37 121.601 207.962 121.213 208.439 120.727C208.925 120.233 209.292 119.692 209.539 119.104L211.699 119.807C211.401 120.634 210.911 121.396 210.229 122.095C209.556 122.794 208.712 123.357 207.698 123.783C206.692 124.2 205.533 124.409 204.221 124.409ZM8.02841 168L0.856534 141.818H3.28551L9.21733 164.331H9.42188L15.3537 141.818H18.1151L24.0469 164.331H24.2514L30.1832 141.818H32.625L25.4531 168H22.8963L16.8239 145.794H16.6577L10.5852 168H8.02841ZM36.4986 168V148.364H38.7869V168H36.4986ZM37.6619 144.989C37.1932 144.989 36.7926 144.831 36.4602 144.516C36.1278 144.192 35.9616 143.804 35.9616 143.352C35.9616 142.901 36.1278 142.517 36.4602 142.202C36.7926 141.878 37.1932 141.716 37.6619 141.716C38.1307 141.716 38.5313 141.878 38.8636 142.202C39.196 142.517 39.3622 142.901 39.3622 143.352C39.3622 143.804 39.196 144.192 38.8636 144.516C38.5313 144.831 38.1307 144.989 37.6619 144.989ZM47.0806 155.727V168H44.805V148.364H47.0167V151.445H47.2212C47.6815 150.439 48.3974 149.634 49.369 149.028C50.3491 148.415 51.5593 148.108 52.9996 148.108C54.3207 148.108 55.4798 148.385 56.4769 148.939C57.4826 149.484 58.2624 150.29 58.8164 151.355C59.3789 152.42 59.6602 153.729 59.6602 155.28V168H57.3846V155.42C57.3846 153.81 56.9329 152.536 56.0295 151.598C55.1346 150.661 53.9329 150.192 52.4244 150.192C51.3931 150.192 50.4769 150.413 49.6758 150.857C48.8746 151.3 48.2397 151.939 47.771 152.774C47.3107 153.601 47.0806 154.585 47.0806 155.727ZM72.7223 168.409C71.1115 168.409 69.701 167.983 68.4908 167.131C67.2805 166.278 66.3345 165.089 65.6527 163.564C64.9794 162.038 64.6428 160.261 64.6428 158.233C64.6428 156.213 64.9794 154.445 65.6527 152.928C66.3345 151.402 67.2848 150.217 68.5036 149.374C69.7223 148.521 71.1413 148.095 72.7607 148.095C73.9538 148.095 74.9467 148.308 75.7393 148.734C76.532 149.152 77.1669 149.672 77.6442 150.294C78.1214 150.916 78.4922 151.521 78.7564 152.109H78.9609V141.818H81.2493V168H79.0249V164.357H78.7564C78.4922 164.953 78.1172 165.567 77.6314 166.197C77.1456 166.82 76.5021 167.344 75.701 167.77C74.9084 168.196 73.9155 168.409 72.7223 168.409ZM72.9908 166.325C74.2607 166.325 75.343 165.98 76.2379 165.29C77.1328 164.591 77.8146 163.632 78.2834 162.413C78.7607 161.186 78.9993 159.78 78.9993 158.195C78.9993 156.626 78.7649 155.241 78.2962 154.04C77.8274 152.83 77.1456 151.884 76.2507 151.202C75.3558 150.511 74.2692 150.166 72.9908 150.166C71.6783 150.166 70.5703 150.524 69.6669 151.24C68.772 151.947 68.0902 152.906 67.6214 154.116C67.1612 155.327 66.9311 156.686 66.9311 158.195C66.9311 159.72 67.1655 161.097 67.6342 162.324C68.103 163.551 68.7848 164.527 69.6797 165.251C70.5831 165.967 71.6868 166.325 72.9908 166.325ZM111.82 159.366C111.519 161.168 110.94 162.733 110.082 164.062C109.224 165.392 108.175 166.42 106.937 167.148C105.698 167.875 104.352 168.239 102.897 168.239C101.403 168.239 100.141 167.866 99.1129 167.122C98.0902 166.372 97.3658 165.321 96.9396 163.969C96.5135 162.611 96.451 161.014 96.7521 159.179C97.0533 157.378 97.6328 155.812 98.4908 154.483C99.3487 153.153 100.4 152.125 101.644 151.398C102.888 150.67 104.241 150.307 105.701 150.307C107.178 150.307 108.428 150.679 109.451 151.423C110.474 152.168 111.201 153.219 111.633 154.577C112.065 155.929 112.127 157.526 111.82 159.366ZM110.295 159.179C110.556 157.622 110.522 156.295 110.192 155.199C109.869 154.102 109.312 153.264 108.522 152.685C107.732 152.099 106.775 151.807 105.65 151.807C104.485 151.807 103.391 152.108 102.369 152.71C101.346 153.307 100.474 154.17 99.7521 155.301C99.0305 156.426 98.5362 157.781 98.2692 159.366C98.0135 160.918 98.0476 162.244 98.3714 163.347C98.6953 164.443 99.2521 165.284 100.042 165.869C100.837 166.449 101.8 166.739 102.931 166.739C104.102 166.739 105.198 166.437 106.221 165.835C107.244 165.233 108.113 164.369 108.829 163.244C109.55 162.114 110.039 160.759 110.295 159.179ZM121.496 154.909L121.274 156.23H114.848L115.061 154.909H121.496ZM114.891 168L117.388 152.991C117.501 152.287 117.76 151.693 118.163 151.21C118.572 150.727 119.061 150.361 119.629 150.111C120.197 149.861 120.78 149.736 121.376 149.736C121.774 149.736 122.098 149.77 122.348 149.838C122.598 149.901 122.794 149.963 122.936 150.026L122.288 151.355C122.175 151.321 122.038 151.281 121.879 151.236C121.726 151.19 121.524 151.168 121.274 151.168C120.615 151.168 120.075 151.352 119.655 151.722C119.234 152.091 118.964 152.619 118.845 153.307L116.408 168H114.891ZM1.89205 187.966V185.818H20.8764V187.966H12.5795V212H10.1889V187.966H1.89205ZM30.57 212.409C28.8739 212.409 27.3739 211.979 26.07 211.118C24.7745 210.257 23.7603 209.068 23.0273 207.551C22.2944 206.026 21.9279 204.266 21.9279 202.271C21.9279 200.26 22.2944 198.491 23.0273 196.966C23.7603 195.432 24.7745 194.239 26.07 193.386C27.3739 192.526 28.8739 192.095 30.57 192.095C32.266 192.095 33.7617 192.526 35.0572 193.386C36.3526 194.247 37.3668 195.44 38.0998 196.966C38.8413 198.491 39.212 200.26 39.212 202.271C39.212 204.266 38.8455 206.026 38.1126 207.551C37.3796 209.068 36.3612 210.257 35.0572 211.118C33.7617 211.979 32.266 212.409 30.57 212.409ZM30.57 210.325C31.9336 210.325 33.0884 209.959 34.0344 209.226C34.9805 208.493 35.6964 207.517 36.1822 206.298C36.6765 205.08 36.9237 203.737 36.9237 202.271C36.9237 200.805 36.6765 199.459 36.1822 198.232C35.6964 197.004 34.9805 196.02 34.0344 195.278C33.0884 194.537 31.9336 194.166 30.57 194.166C29.2148 194.166 28.06 194.537 27.1055 195.278C26.1594 196.02 25.4393 197.004 24.945 198.232C24.4592 199.459 24.2163 200.805 24.2163 202.271C24.2163 203.737 24.4592 205.08 24.945 206.298C25.4393 207.517 26.1594 208.493 27.1055 209.226C28.0515 209.959 29.2063 210.325 30.57 210.325ZM51.6989 219.773C50.3608 219.773 49.1889 219.598 48.1832 219.249C47.1776 218.908 46.3295 218.439 45.6392 217.842C44.9489 217.246 44.4119 216.577 44.0284 215.835L45.8949 214.608C46.1761 215.102 46.5511 215.588 47.0199 216.065C47.4972 216.543 48.1151 216.939 48.8736 217.254C49.6406 217.57 50.5824 217.727 51.6989 217.727C53.4375 217.727 54.8395 217.293 55.9048 216.423C56.9787 215.554 57.5156 214.203 57.5156 212.371V207.947H57.3111C57.0469 208.544 56.6676 209.141 56.1733 209.737C55.679 210.325 55.0313 210.815 54.2301 211.207C53.4375 211.599 52.4531 211.795 51.277 211.795C49.7088 211.795 48.3153 211.408 47.0966 210.632C45.8864 209.857 44.9318 208.749 44.233 207.308C43.5426 205.859 43.1974 204.134 43.1974 202.131C43.1974 200.145 43.5341 198.398 44.2074 196.889C44.8892 195.381 45.8395 194.205 47.0582 193.361C48.277 192.517 49.696 192.095 51.3153 192.095C52.517 192.095 53.5142 192.308 54.3068 192.734C55.0994 193.152 55.7344 193.672 56.2116 194.294C56.6974 194.916 57.0767 195.521 57.3494 196.109H57.5795V192.364H59.804V212.511C59.804 214.173 59.4503 215.541 58.7429 216.615C58.0355 217.689 57.0724 218.482 55.8537 218.993C54.6349 219.513 53.25 219.773 51.6989 219.773ZM51.5455 209.712C52.8068 209.712 53.8849 209.409 54.7798 208.804C55.6747 208.19 56.3608 207.312 56.8381 206.17C57.3153 205.028 57.554 203.669 57.554 202.092C57.554 200.558 57.3196 199.199 56.8509 198.014C56.3821 196.821 55.7003 195.884 54.8054 195.202C53.919 194.511 52.8324 194.166 51.5455 194.166C50.233 194.166 49.125 194.52 48.2216 195.227C47.3182 195.935 46.6364 196.889 46.1761 198.091C45.7159 199.284 45.4858 200.618 45.4858 202.092C45.4858 203.592 45.7202 204.918 46.1889 206.068C46.6577 207.21 47.3438 208.105 48.2472 208.753C49.1506 209.392 50.25 209.712 51.5455 209.712ZM73.7674 212.409C71.935 212.409 70.3498 211.983 69.0117 211.131C67.6737 210.27 66.6381 209.081 65.9052 207.564C65.1808 206.038 64.8185 204.283 64.8185 202.297C64.8185 200.32 65.1808 198.564 65.9052 197.03C66.6381 195.487 67.6481 194.281 68.935 193.412C70.2305 192.534 71.7262 192.095 73.4222 192.095C74.4876 192.095 75.5146 192.291 76.5032 192.683C77.4918 193.067 78.3782 193.659 79.1623 194.46C79.9549 195.253 80.5813 196.254 81.0415 197.464C81.5018 198.666 81.7319 200.089 81.7319 201.734V202.859H66.391V200.852H79.4052C79.4052 199.591 79.1495 198.457 78.6381 197.452C78.1353 196.437 77.4322 195.636 76.5288 195.048C75.6339 194.46 74.5984 194.166 73.4222 194.166C72.1779 194.166 71.0827 194.499 70.1367 195.163C69.1907 195.828 68.4492 196.706 67.9123 197.797C67.3839 198.888 67.1154 200.081 67.1069 201.376V202.578C67.1069 204.138 67.3754 205.501 67.9123 206.669C68.4577 207.828 69.229 208.727 70.2262 209.366C71.2234 210.006 72.4038 210.325 73.7674 210.325C74.6964 210.325 75.5103 210.18 76.2092 209.891C76.9165 209.601 77.5089 209.213 77.9862 208.727C78.4719 208.233 78.8384 207.692 79.0856 207.104L81.2461 207.807C80.9478 208.634 80.4577 209.396 79.7759 210.095C79.1026 210.794 78.2589 211.357 77.2447 211.783C76.239 212.2 75.0799 212.409 73.7674 212.409ZM94.4808 192.364V194.345H85.1101V192.364H94.4808ZM88.0376 187.659H90.326V206.874C90.326 207.692 90.4666 208.335 90.7479 208.804C91.0291 209.264 91.3956 209.592 91.8473 209.788C92.299 209.976 92.7805 210.07 93.2919 210.07C93.5902 210.07 93.8459 210.053 94.0589 210.018C94.272 209.976 94.4595 209.933 94.6214 209.891L95.1072 211.949C94.8857 212.034 94.6129 212.111 94.2891 212.179C93.9652 212.256 93.5646 212.294 93.0874 212.294C92.2521 212.294 91.4467 212.111 90.6712 211.744C89.9041 211.378 89.2734 210.832 88.7791 210.108C88.2848 209.384 88.0376 208.484 88.0376 207.411V187.659ZM101.924 199.727V212H99.6488V185.818H101.924V195.445H102.129C102.589 194.43 103.301 193.621 104.264 193.016C105.235 192.411 106.463 192.108 107.946 192.108C109.275 192.108 110.443 192.381 111.449 192.926C112.454 193.472 113.238 194.277 113.801 195.342C114.363 196.408 114.645 197.72 114.645 199.28V212H112.356V199.42C112.356 197.801 111.904 196.527 111.001 195.598C110.106 194.661 108.896 194.192 107.37 194.192C106.322 194.192 105.389 194.413 104.571 194.857C103.752 195.3 103.105 195.939 102.627 196.774C102.159 197.601 101.924 198.585 101.924 199.727ZM128.576 212.409C126.744 212.409 125.158 211.983 123.82 211.131C122.482 210.27 121.447 209.081 120.714 207.564C119.989 206.038 119.627 204.283 119.627 202.297C119.627 200.32 119.989 198.564 120.714 197.03C121.447 195.487 122.457 194.281 123.744 193.412C125.039 192.534 126.535 192.095 128.231 192.095C129.296 192.095 130.323 192.291 131.312 192.683C132.3 193.067 133.187 193.659 133.971 194.46C134.763 195.253 135.39 196.254 135.85 197.464C136.31 198.666 136.54 200.089 136.54 201.734V202.859H121.2V200.852H134.214C134.214 199.591 133.958 198.457 133.447 197.452C132.944 196.437 132.241 195.636 131.337 195.048C130.442 194.46 129.407 194.166 128.231 194.166C126.987 194.166 125.891 194.499 124.945 195.163C123.999 195.828 123.258 196.706 122.721 197.797C122.192 198.888 121.924 200.081 121.915 201.376V202.578C121.915 204.138 122.184 205.501 122.721 206.669C123.266 207.828 124.038 208.727 125.035 209.366C126.032 210.006 127.212 210.325 128.576 210.325C129.505 210.325 130.319 210.18 131.018 209.891C131.725 209.601 132.317 209.213 132.795 208.727C133.281 208.233 133.647 207.692 133.894 207.104L136.055 207.807C135.756 208.634 135.266 209.396 134.585 210.095C133.911 210.794 133.067 211.357 132.053 211.783C131.048 212.2 129.888 212.409 128.576 212.409ZM141.555 212V192.364H143.767V195.381H143.933C144.325 194.392 145.007 193.595 145.978 192.99C146.958 192.376 148.066 192.07 149.302 192.07C149.49 192.07 149.699 192.074 149.929 192.082C150.159 192.091 150.35 192.099 150.504 192.108V194.422C150.402 194.405 150.223 194.379 149.967 194.345C149.711 194.311 149.434 194.294 149.136 194.294C148.113 194.294 147.201 194.511 146.4 194.946C145.608 195.372 144.981 195.964 144.521 196.723C144.061 197.482 143.831 198.347 143.831 199.318V212H141.555ZM156.663 199.727V212H154.387V192.364H156.599V195.445H156.803C157.263 194.439 157.979 193.634 158.951 193.028C159.931 192.415 161.141 192.108 162.582 192.108C163.903 192.108 165.062 192.385 166.059 192.939C167.065 193.484 167.844 194.29 168.398 195.355C168.961 196.42 169.242 197.729 169.242 199.28V212H166.967V199.42C166.967 197.81 166.515 196.536 165.612 195.598C164.717 194.661 163.515 194.192 162.006 194.192C160.975 194.192 160.059 194.413 159.258 194.857C158.457 195.3 157.822 195.939 157.353 196.774C156.893 197.601 156.663 198.585 156.663 199.727ZM183.174 212.409C181.341 212.409 179.756 211.983 178.418 211.131C177.08 210.27 176.044 209.081 175.311 207.564C174.587 206.038 174.225 204.283 174.225 202.297C174.225 200.32 174.587 198.564 175.311 197.03C176.044 195.487 177.054 194.281 178.341 193.412C179.637 192.534 181.132 192.095 182.828 192.095C183.894 192.095 184.921 192.291 185.909 192.683C186.898 193.067 187.784 193.659 188.569 194.46C189.361 195.253 189.988 196.254 190.448 197.464C190.908 198.666 191.138 200.089 191.138 201.734V202.859H175.797V200.852H188.811C188.811 199.591 188.556 198.457 188.044 197.452C187.542 196.437 186.838 195.636 185.935 195.048C185.04 194.46 184.005 194.166 182.828 194.166C181.584 194.166 180.489 194.499 179.543 195.163C178.597 195.828 177.855 196.706 177.319 197.797C176.79 198.888 176.522 200.081 176.513 201.376V202.578C176.513 204.138 176.782 205.501 177.319 206.669C177.864 207.828 178.635 208.727 179.632 209.366C180.63 210.006 181.81 210.325 183.174 210.325C184.103 210.325 184.917 210.18 185.615 209.891C186.323 209.601 186.915 209.213 187.392 208.727C187.878 208.233 188.245 207.692 188.492 207.104L190.652 207.807C190.354 208.634 189.864 209.396 189.182 210.095C188.509 210.794 187.665 211.357 186.651 211.783C185.645 212.2 184.486 212.409 183.174 212.409ZM209.346 196.672L207.262 197.26C207.058 196.672 206.768 196.139 206.393 195.662C206.018 195.185 205.528 194.805 204.923 194.524C204.326 194.243 203.585 194.102 202.698 194.102C201.369 194.102 200.278 194.418 199.425 195.048C198.573 195.679 198.147 196.493 198.147 197.49C198.147 198.334 198.437 199.02 199.016 199.548C199.604 200.068 200.508 200.482 201.727 200.788L204.692 201.517C206.337 201.918 207.569 202.553 208.387 203.422C209.214 204.291 209.627 205.382 209.627 206.695C209.627 207.803 209.32 208.787 208.707 209.648C208.093 210.509 207.237 211.186 206.137 211.68C205.046 212.166 203.781 212.409 202.34 212.409C200.423 212.409 198.842 211.979 197.597 211.118C196.353 210.249 195.556 208.996 195.207 207.359L197.393 206.822C197.674 207.99 198.224 208.872 199.042 209.469C199.869 210.065 200.955 210.364 202.302 210.364C203.81 210.364 205.016 210.027 205.92 209.354C206.823 208.672 207.275 207.82 207.275 206.797C207.275 206.004 207.011 205.339 206.482 204.803C205.954 204.257 205.153 203.857 204.079 203.601L200.87 202.834C199.165 202.425 197.904 201.777 197.086 200.891C196.268 200.004 195.859 198.905 195.859 197.592C195.859 196.51 196.153 195.56 196.741 194.741C197.329 193.915 198.138 193.267 199.17 192.798C200.201 192.33 201.377 192.095 202.698 192.095C204.496 192.095 205.933 192.504 207.006 193.322C208.089 194.132 208.869 195.249 209.346 196.672ZM216.425 212.192C215.922 212.192 215.488 212.013 215.121 211.655C214.763 211.288 214.584 210.854 214.584 210.351C214.584 209.839 214.763 209.405 215.121 209.047C215.488 208.689 215.922 208.51 216.425 208.51C216.936 208.51 217.371 208.689 217.729 209.047C218.087 209.405 218.266 209.839 218.266 210.351C218.266 210.683 218.181 210.99 218.01 211.271C217.848 211.553 217.627 211.778 217.346 211.949C217.073 212.111 216.766 212.192 216.425 212.192ZM224.31 185.818V188.119C224.31 188.818 224.182 189.564 223.926 190.357C223.679 191.141 223.313 191.903 222.827 192.645C222.349 193.378 221.77 194.017 221.088 194.562L219.848 193.476C220.487 192.726 221.028 191.895 221.472 190.983C221.915 190.062 222.136 189.121 222.136 188.158V185.818H224.31ZM230.603 185.818V188.119C230.603 188.818 230.475 189.564 230.219 190.357C229.972 191.141 229.605 191.903 229.12 192.645C228.642 193.378 228.063 194.017 227.381 194.562L226.141 193.476C226.78 192.726 227.321 191.895 227.765 190.983C228.208 190.062 228.429 189.121 228.429 188.158V185.818H230.603Z" fill="#E7EAFE"/>
</svg>
